<?xml version="1.0" standalone="no"?>
<!DOCTYPE svg PUBLIC "-//W3C//DTD SVG 20010904//EN"
 "http://www.w3.org/TR/2001/REC-SVG-20010904/DTD/svg10.dtd">
<svg version="1.0" xmlns="http://www.w3.org/2000/svg"
 width="1920.000000pt" height="1920.000000pt" viewBox="0 0 1920.000000 1920.000000"
 preserveAspectRatio="xMidYMid meet">
<metadata>
Created by potrace 1.14, written by Peter Selinger 2001-2017
</metadata>
<g transform="translate(0.000000,1920.000000) scale(0.100000,-0.100000)"
fill="#000000" stroke="none">
<path d="M11758 13532 c-30 -156 -125 -458 -193 -616 l-16 -39 37 22 c20 12
38 20 40 18 2 -2 -19 -70 -46 -152 -28 -81 -48 -150 -46 -153 3 -2 17 3 32 12
14 10 28 15 31 12 10 -9 -27 -205 -72 -382 -25 -97 -43 -179 -42 -181 2 -1 16
11 32 27 16 17 32 30 36 30 11 0 -20 -107 -96 -337 -36 -108 -64 -198 -62
-199 2 -2 20 8 40 21 20 14 39 25 43 25 13 0 -8 -102 -41 -198 -31 -90 -65
-173 -129 -316 l-27 -58 58 46 c32 25 59 41 61 36 9 -27 -118 -376 -214 -588
l-35 -77 61 60 c58 56 61 58 54 30 -11 -49 -52 -150 -130 -318 -40 -87 -67
-154 -61 -148 7 5 35 39 62 75 81 106 82 90 3 -124 -28 -74 -75 -189 -105
-255 -94 -204 -112 -245 -109 -245 1 0 33 38 71 85 37 47 70 83 73 80 11 -10
-32 -144 -74 -233 -41 -84 -47 -92 -72 -91 -50 3 -62 -1 -62 -19 0 -18 -18
-42 -31 -42 -4 0 -10 11 -13 25 -5 20 -13 25 -36 25 -27 0 -30 3 -30 31 0 25
-3 30 -16 25 -10 -4 -25 1 -34 9 -12 10 -20 13 -24 6 -5 -7 -15 -7 -34 0 -51
20 -67 19 -84 -4 -14 -18 -19 -20 -29 -9 -17 16 -39 16 -39 -1 0 -7 -10 -17
-22 -22 -13 -6 -22 -16 -21 -23 2 -7 -2 -12 -7 -12 -6 0 -4 -10 4 -23 14 -21
14 -24 -3 -34 -15 -10 -22 -9 -31 2 -11 14 -69 11 -100 -6 -10 -5 -18 1 -28
24 -9 23 -15 28 -21 18 -6 -8 -16 -11 -31 -6 -14 4 -25 2 -30 -5 -6 -10 -15
-8 -35 9 -34 26 -36 26 -64 2 -18 -16 -20 -23 -12 -39 9 -17 6 -22 -19 -32
-17 -7 -30 -16 -30 -20 0 -16 -45 3 -67 27 -15 17 -28 23 -41 19 -13 -4 -22 1
-31 17 -9 18 -22 24 -48 25 -20 1 -41 9 -47 17 -6 9 -24 18 -39 19 -24 3 -29
-1 -34 -25 -5 -29 -17 -37 -27 -20 -3 5 -15 11 -27 14 -17 5 -20 2 -16 -13 3
-13 -2 -20 -20 -25 -17 -4 -23 -11 -19 -21 5 -12 -1 -14 -27 -9 -24 5 -38 1
-55 -13 -22 -19 -22 -19 -2 -44 l19 -25 -24 -11 c-25 -11 -34 -32 -15 -32 6 0
10 -11 10 -25 0 -29 -12 -32 -31 -9 -24 29 -51 33 -74 10 -18 -18 -20 -25 -11
-48 9 -23 7 -30 -9 -43 -14 -12 -16 -18 -7 -21 6 -3 12 -19 12 -35 0 -18 4
-28 10 -24 6 3 10 1 10 -5 0 -7 11 -21 25 -32 14 -11 25 -26 25 -34 0 -16 -16
-19 -25 -4 -4 6 -11 8 -16 4 -5 -3 -16 0 -24 6 -12 10 -15 10 -15 1 0 -8 -8
-10 -20 -6 -15 5 -23 0 -32 -19 -6 -14 -15 -26 -20 -26 -12 0 -10 13 9 40 12
17 13 25 5 28 -7 2 -12 12 -12 23 0 12 -5 16 -15 13 -17 -7 -21 11 -5 21 17
11 12 77 -7 91 -16 12 -15 13 12 14 51 1 77 11 70 28 -3 8 0 19 7 24 11 6 11
10 0 16 -7 5 -12 15 -10 23 2 7 -12 21 -29 30 -18 9 -40 22 -49 30 -14 12 -14
14 0 25 14 10 14 12 -2 26 -9 8 -25 18 -36 22 -17 6 -18 8 -2 24 9 10 16 22
16 26 0 8 -46 5 -80 -5 -9 -3 -16 5 -18 21 -6 55 -14 71 -38 82 -24 11 -25 13
-7 25 15 12 16 15 3 23 -8 5 -21 10 -27 11 -42 5 -42 5 -28 41 4 11 1 17 -12
20 -14 3 -11 8 15 21 24 14 37 15 52 7 17 -9 20 -8 20 14 0 19 4 23 20 19 24
-6 24 -3 6 41 -14 33 -14 34 11 41 24 6 25 7 8 25 -10 11 -24 20 -32 20 -21 0
-27 29 -11 48 24 27 30 52 13 52 -8 0 -15 7 -15 15 0 8 -7 15 -15 15 -8 0 -15
5 -15 11 0 8 -11 9 -32 5 -30 -6 -31 -6 -14 13 17 18 17 20 0 29 -15 8 -16 13
-5 25 11 14 7 17 -27 27 -33 11 -38 16 -34 36 5 29 -3 30 -46 4 -40 -25 -52
-25 -52 -2 0 9 -6 24 -13 32 -14 19 -67 20 -67 3 0 -18 -10 -16 -26 5 -20 25
-17 50 9 75 24 25 30 77 8 77 -7 0 -11 6 -8 13 3 9 -9 20 -34 31 l-39 18 22
18 c31 25 17 35 -43 33 -40 -1 -48 2 -39 12 6 7 15 28 20 45 8 28 6 35 -13 51
-28 23 -51 24 -88 2 -21 -12 -32 -14 -40 -6 -7 7 -3 12 16 17 22 6 25 9 14 22
-9 11 -9 18 -1 26 9 9 5 20 -13 44 -14 19 -22 39 -19 48 5 12 -1 16 -25 16
-17 0 -31 5 -31 10 0 6 -8 10 -18 10 -11 0 -24 11 -30 24 -6 13 -17 24 -24 23
-48 -2 -59 3 -53 23 7 21 -4 25 -52 21 -18 -1 -23 3 -23 24 0 30 -7 31 -39 6
-27 -21 -45 -18 -79 13 -18 16 -25 18 -31 7 -5 -7 -14 -10 -20 -7 -6 4 -11 0
-11 -9 0 -11 -5 -15 -15 -11 -20 7 -21 -63 0 -90 19 -25 19 -38 -1 -30 -22 8
-54 -11 -54 -33 0 -10 9 -26 20 -36 22 -20 18 -35 -8 -35 -10 0 -28 -7 -40
-16 -17 -12 -20 -19 -12 -29 8 -10 8 -15 -1 -21 -9 -5 -7 -11 6 -21 11 -7 13
-13 7 -13 -7 0 -12 -4 -12 -8 0 -13 76 -36 94 -29 25 10 20 -42 -5 -69 -19
-21 -29 -61 -30 -126 0 -9 -14 -22 -30 -28 -21 -9 -27 -16 -19 -25 5 -6 6 -15
2 -19 -4 -4 0 -13 8 -19 8 -7 15 -19 15 -27 0 -8 14 -19 32 -24 21 -7 33 -17
35 -30 4 -25 55 -35 70 -14 7 9 11 10 14 2 5 -12 44 -6 96 14 23 9 34 7 70
-13 24 -14 36 -25 27 -25 -9 0 -27 -9 -40 -20 -23 -19 -23 -21 -6 -31 12 -7
16 -17 12 -30 -4 -11 -2 -19 5 -19 6 0 23 -13 37 -30 13 -17 35 -30 47 -30 12
0 32 -7 44 -16 20 -14 21 -17 7 -30 -22 -23 -18 -52 11 -77 l26 -23 -24 -36
c-34 -49 -27 -95 15 -113 23 -9 31 -20 33 -44 3 -22 0 -31 -10 -31 -8 0 -16
-4 -18 -10 -1 -5 -21 -11 -43 -13 -32 -2 -39 -6 -37 -21 3 -14 0 -16 -16 -7
-23 12 -32 6 -32 -23 -1 -21 -22 -56 -34 -56 -3 0 -6 55 -7 123 0 67 -4 131
-9 142 -6 13 -9 -10 -9 -70 -1 -49 -4 -154 -8 -232 l-6 -142 -46 33 c-109 80
-214 146 -222 140 -21 -12 -5 -32 69 -84 42 -30 79 -57 82 -60 3 -3 31 -23 63
-44 l58 -40 -6 -240 c-3 -133 -8 -302 -11 -376 -3 -74 -5 -183 -4 -242 0 -60
-3 -108 -7 -108 -4 0 -44 27 -88 60 -44 33 -84 60 -88 60 -5 0 -6 4 -3 8 3 5
0 9 -7 9 -7 0 -31 12 -54 28 -32 20 -44 36 -47 59 -3 17 -17 122 -32 234 -15
111 -31 202 -36 202 -11 0 -10 -30 11 -240 11 -102 18 -186 16 -188 -2 -2 -15
4 -29 13 -13 9 -35 15 -48 13 -19 -3 -13 -10 45 -55 36 -29 70 -53 75 -53 5 0
36 -21 70 -47 33 -27 97 -73 142 -103 l80 -55 -2 -147 c-2 -80 0 -149 3 -153
4 -3 23 -3 42 0 25 5 36 13 39 28 2 12 1 135 -3 272 -3 138 -4 256 -1 263 3
10 7 10 16 -2 6 -7 24 -17 40 -20 16 -4 36 -16 45 -27 9 -11 27 -25 41 -32 21
-10 24 -19 22 -47 -2 -19 -8 -50 -14 -69 -6 -18 -8 -51 -5 -72 4 -29 2 -39 -9
-39 -8 0 -14 -4 -14 -9 0 -5 -9 -13 -20 -16 -20 -6 -29 -35 -10 -35 5 0 14 -9
20 -20 9 -17 6 -25 -20 -51 -36 -36 -38 -51 -7 -47 17 2 21 -1 19 -16 -4 -22
-5 -22 163 23 197 54 360 105 343 109 -19 4 -23 14 -11 25 3 4 14 0 23 -8 15
-14 38 -8 241 61 226 77 290 103 257 104 -28 0 -21 18 14 40 23 14 36 16 45 9
6 -6 17 -8 23 -4 14 9 13 68 -2 84 -11 11 -8 12 17 5 17 -4 47 -9 68 -10 25
-1 45 -10 57 -24 l19 -22 93 38 c190 75 202 82 187 101 -12 17 -12 17 5 2 17
-16 24 -14 106 22 49 21 97 42 107 48 10 5 56 27 103 47 47 20 165 77 263 126
170 85 177 89 167 111 -11 21 -11 21 5 2 15 -19 18 -18 128 38 226 115 424
225 461 257 17 14 46 32 63 39 18 7 30 17 27 22 -3 5 4 9 15 9 12 0 21 7 21
15 0 8 9 15 19 15 38 0 51 10 41 31 -8 15 -7 17 5 13 8 -4 17 1 21 10 3 9 9
14 13 12 20 -12 107 22 196 76 301 185 758 496 1050 715 230 173 308 242 295
262 -7 12 -11 12 -23 2 -12 -9 -17 -9 -23 1 -4 7 -4 10 1 6 4 -4 14 -3 22 4
10 8 17 8 25 0 14 -14 32 -16 24 -3 -3 5 1 12 10 15 10 4 13 2 8 -7 -4 -6 2
-3 13 8 11 11 32 28 47 39 14 10 23 23 19 29 -4 7 0 8 12 3 15 -5 16 -4 5 9
-14 17 -46 20 -55 5 -3 -5 -12 -10 -18 -10 -7 0 -3 8 8 16 11 8 30 13 43 11
12 -2 22 0 22 4 0 5 5 9 11 9 8 0 8 -5 -1 -15 -19 -23 0 -18 37 11 21 16 32
32 29 40 -4 12 -2 12 14 4 15 -8 21 -6 29 9 6 10 7 22 3 26 -4 5 -1 5 6 1 17
-10 51 20 47 42 -2 9 -4 21 -4 25 -1 5 -6 5 -13 1 -7 -4 -8 -3 -4 4 4 6 13 9
21 6 8 -4 12 -10 9 -15 -3 -5 0 -9 6 -9 6 0 8 -5 4 -12 -5 -7 -3 -8 5 -3 7 4
11 15 8 24 -2 10 1 18 9 18 7 0 10 -5 7 -11 -8 -12 23 10 49 35 16 16 14 29
-4 29 -5 0 -6 -5 -2 -11 5 -8 2 -9 -11 -1 -10 5 -20 17 -21 26 -2 14 1 14 25
1 32 -16 56 -15 74 5 9 10 9 11 0 6 -9 -5 -11 -2 -7 8 3 8 11 13 18 10 13 -5
101 50 101 63 0 17 17 33 27 27 6 -4 8 -2 4 4 -3 6 -2 13 4 17 5 3 10 1 10 -5
0 -6 5 -8 10 -5 6 4 8 11 5 16 -3 5 2 6 11 2 12 -4 15 -3 10 5 -4 7 -1 12 8
12 13 0 20 15 18 40 0 3 8 6 19 6 19 0 19 -1 3 -13 -10 -7 -16 -15 -13 -17 2
-2 14 4 26 14 l23 18 -30 11 c-38 13 -38 18 0 18 20 0 26 -3 18 -9 -9 -5 -4
-8 14 -8 15 0 30 5 34 12 5 7 3 8 -6 3 -9 -6 -11 -4 -6 4 5 7 13 10 20 8 14
-6 49 22 58 45 5 11 1 18 -10 21 -9 2 1 3 24 3 43 -1 130 46 119 63 -3 5 2 12
11 15 9 4 13 2 8 -5 -4 -8 0 -8 15 0 11 7 20 15 20 19 -4 21 3 32 19 31 10 0
12 -3 5 -6 -7 -2 -13 -9 -13 -14 0 -6 8 -5 20 1 11 6 17 16 14 22 -4 7 -3 8 5
4 6 -4 96 40 209 102 220 123 331 179 475 242 53 24 97 46 97 49 0 4 -25 15
-56 26 -31 11 -52 21 -47 22 5 2 35 -6 68 -17 73 -25 75 -25 76 3 1 16 2 18 6
5 2 -10 7 -18 10 -18 2 0 64 22 136 49 138 51 392 130 487 151 30 6 72 16 92
21 l37 10 -30 82 c-58 158 -65 169 -96 163 -16 -3 -75 -7 -133 -10 -108 -5
-76 2 83 19 44 4 67 11 67 19 0 8 -10 36 -21 64 -18 44 -31 58 -100 103 -44
29 -82 56 -86 62 -3 5 28 -14 70 -42 42 -28 78 -51 81 -51 9 0 -81 193 -166
361 -46 89 -94 184 -107 210 -17 34 -31 49 -44 49 -11 0 -26 8 -34 18 -10 12
-16 14 -19 5 -3 -7 -19 -13 -35 -13 -16 0 -29 -5 -29 -11 0 -6 -9 -9 -20 -6
-10 3 -24 -1 -31 -9 -6 -8 -17 -14 -25 -14 -14 0 -101 45 -119 61 -5 5 -17 9
-26 9 -9 0 -19 6 -22 13 -3 6 -27 23 -53 37 -27 14 -55 31 -62 38 -8 7 -35 23
-61 36 -25 13 -70 40 -99 60 -30 20 -58 33 -63 30 -5 -3 -9 -1 -9 3 0 11 -110
77 -117 70 -2 -3 8 -12 24 -21 15 -8 23 -15 18 -16 -17 0 -56 31 -50 40 9 14
-58 49 -87 46 -15 -2 -25 1 -22 5 3 5 0 9 -7 9 -7 0 -10 3 -7 6 4 3 16 1 27
-6 12 -6 21 -8 21 -6 0 3 -19 15 -42 27 -24 12 -51 28 -60 36 -9 8 -22 12 -27
8 -6 -3 -11 -2 -11 4 0 15 -120 82 -132 75 -7 -4 -8 -2 -4 4 3 6 -2 16 -13 21
-26 14 -34 14 -25 -1 4 -7 3 -8 -5 -4 -6 4 -9 12 -6 17 4 5 -2 12 -12 16 -10
3 -26 13 -35 20 -9 9 -23 12 -30 7 -7 -4 -10 -4 -6 1 7 7 -43 40 -192 127
l-35 21 33 -32 c19 -17 38 -29 43 -25 5 3 8 2 7 -3 -1 -4 6 -21 16 -36 13 -20
22 -25 29 -18 17 17 31 13 17 -4 -9 -11 -7 -21 13 -47 70 -94 91 -186 57 -253
-11 -21 -20 -36 -20 -32 0 4 -12 -3 -27 -17 -15 -14 -39 -30 -55 -37 -15 -6
-25 -16 -21 -22 4 -7 0 -8 -11 -4 -13 5 -17 3 -13 -7 4 -10 1 -13 -8 -10 -16
7 -146 -66 -139 -78 3 -4 -1 -5 -9 -2 -9 3 -28 -7 -44 -23 -16 -16 -36 -27
-43 -25 -9 3 -11 -1 -7 -12 4 -11 3 -15 -4 -11 -5 4 -17 1 -25 -6 -12 -10 -12
-14 -2 -21 9 -6 6 -7 -8 -3 -26 7 -134 -76 -134 -103 0 -13 -2 -14 -9 -3 -6 9
-11 10 -15 2 -4 -6 -4 -16 0 -23 5 -7 2 -9 -8 -5 -21 8 -121 -99 -114 -122 7
-20 -28 -68 -38 -53 -4 6 3 16 14 22 21 11 27 30 10 30 -12 0 -100 -130 -100
-147 0 -7 -5 -13 -11 -13 -6 0 -8 -7 -5 -17 4 -10 4 -14 0 -10 -13 13 -66
-125 -70 -182 -2 -31 -8 -65 -14 -76 -5 -11 -16 -47 -24 -80 -8 -33 -24 -87
-36 -120 -18 -50 -20 -65 -11 -91 6 -17 11 -37 11 -45 0 -12 76 -14 530 -11
371 2 530 0 530 -7 0 -6 -6 -11 -12 -11 -7 -1 -260 -1 -561 -1 l-548 1 -10
-28 c-6 -15 -15 -35 -21 -45 -11 -23 -1 -37 12 -17 6 8 10 11 9 5 0 -5 -7 -21
-15 -35 -8 -14 -13 -17 -10 -7 4 12 2 17 -6 14 -7 -2 -13 -16 -13 -30 1 -14
-1 -24 -4 -21 -5 5 -60 -106 -61 -123 -1 -75 -80 197 -80 277 0 41 7 49 28 28
26 -26 23 6 -7 94 -17 51 -31 103 -31 116 0 20 3 21 20 12 25 -14 25 -14 -9
72 -47 120 -141 414 -148 463 -7 53 -17 44 -28 -25 -9 -56 -61 -223 -108 -352
-20 -54 -34 -98 -31 -98 3 0 14 5 25 10 25 14 25 11 -16 -110 -19 -57 -35
-105 -35 -107 0 -2 9 1 19 7 11 5 23 10 27 10 12 0 -5 -102 -45 -265 -22 -87
-39 -161 -37 -162 2 -2 11 8 20 22 48 74 33 -1 -49 -245 -25 -74 -45 -136 -45
-138 0 -2 13 6 29 17 16 12 32 21 36 21 12 0 -7 -83 -41 -177 -55 -153 -51
-151 -94 -42 -21 52 -37 95 -35 97 1 1 15 -2 30 -8 32 -12 45 -5 23 13 -8 6
-32 34 -54 61 l-38 48 52 -7 53 -7 -15 33 c-8 19 -35 79 -59 134 -45 102 -102
285 -88 285 4 0 18 -12 32 -26 13 -14 33 -31 44 -36 22 -12 22 -13 -34 62
l-24 32 33 -17 c17 -9 34 -15 36 -12 2 2 -6 24 -20 48 -35 66 -143 415 -131
427 2 2 15 -4 29 -14 15 -9 29 -15 31 -12 3 3 -7 33 -21 67 -53 131 -134 511
-109 511 4 0 20 -7 36 -16 17 -8 33 -14 35 -11 2 2 -16 64 -41 137 -47 141
-51 189 -13 169 11 -6 21 -9 23 -7 2 2 -19 61 -46 132 -74 193 -154 448 -179
566 -13 58 -23 106 -24 107 0 1 -9 -38 -18 -85z m2171 -126 c-3 -3 -11 5 -18
17 -13 21 -12 21 5 5 10 -10 16 -20 13 -22z m47 -25 c-4 -5 0 -11 6 -14 7 -2
10 -8 6 -12 -4 -4 -14 -1 -22 8 -15 14 -12 27 6 27 5 0 7 -4 4 -9z m129 -89
c-3 -3 -11 0 -18 7 -9 10 -8 11 6 5 10 -3 15 -9 12 -12z m40 -2 c-3 -5 -12
-10 -18 -10 -7 0 -6 4 3 10 19 12 23 12 15 0z m58 -59 c-4 -17 -8 -18 -24 -8
-10 6 -19 16 -19 21 0 4 7 3 15 -4 12 -10 15 -9 15 4 0 10 4 15 9 12 5 -3 7
-15 4 -25z m68 -11 c13 -10 18 -19 12 -20 -7 0 -13 5 -13 11 0 6 -7 8 -16 5
-8 -3 -13 -2 -9 3 3 5 -1 12 -7 14 -8 4 -9 6 -2 6 7 1 22 -8 35 -19z m-198
-10 c3 -11 1 -18 -4 -14 -5 3 -9 12 -9 20 0 20 7 17 13 -6z m-16 -42 c-3 -8
-6 -5 -6 6 -1 11 2 17 5 13 3 -3 4 -12 1 -19z m313 -8 c0 -5 -2 -10 -4 -10 -3
0 -8 5 -11 10 -3 6 -1 10 4 10 6 0 11 -4 11 -10z m5 -38 c-3 -3 -11 0 -18 7
-9 10 -8 11 6 5 10 -3 15 -9 12 -12z m125 -36 c0 -3 -4 -8 -10 -11 -5 -3 -10
-1 -10 4 0 6 5 11 10 11 6 0 10 -2 10 -4z m-420 -13 c0 -14 -19 -38 -25 -32
-8 8 5 39 16 39 5 0 9 -3 9 -7z m435 -31 c-3 -3 -11 0 -18 7 -9 10 -8 11 6 5
10 -3 15 -9 12 -12z m99 -41 c-5 -6 -34 20 -34 30 0 5 8 1 18 -8 10 -10 17
-20 16 -22z m56 -15 c0 -2 -7 -7 -16 -10 -8 -3 -12 -2 -9 4 6 10 25 14 25 6z
m-859 -65 c-23 -18 -23 -19 -5 -23 17 -3 17 -4 -4 -10 -12 -3 -20 -2 -16 3 3
5 -1 9 -10 9 -8 0 -16 -5 -18 -12 -3 -8 -7 -8 -11 -2 -3 6 10 20 31 32 47 26
65 27 33 3z m1007 -20 c11 -7 10 -9 -3 -14 -9 -4 -14 -3 -10 2 3 5 -1 12 -7
14 -7 3 -8 6 -3 6 6 0 16 -3 23 -8z m-48 -11 c8 -5 11 -10 5 -10 -5 0 -17 5
-25 10 -8 5 -10 10 -5 10 6 0 17 -5 25 -10z m180 -84 c0 -4 -7 -3 -15 4 -12
10 -18 10 -30 0 -18 -15 -20 -5 -3 14 10 10 17 11 30 2 10 -6 18 -15 18 -20z
m77 -42 c-3 -3 -12 -4 -19 -1 -8 3 -5 6 6 6 11 1 17 -2 13 -5z m-1482 -25 c4
-6 0 -9 -11 -7 -11 2 -18 -2 -16 -9 1 -7 -2 -13 -8 -13 -14 0 -13 13 2 28 15
15 25 15 33 1z m1475 -53 c0 -2 -13 -6 -30 -8 -16 -3 -30 -1 -30 4 0 4 14 8
30 8 17 0 30 -2 30 -4z m50 0 c0 -9 -30 -14 -35 -6 -4 6 3 10 14 10 12 0 21
-2 21 -4z m210 -10 c0 -3 -4 -8 -10 -11 -5 -3 -10 -1 -10 4 0 6 5 11 10 11 6
0 10 -2 10 -4z m-1785 -16 c-3 -5 -12 -10 -18 -10 -7 0 -6 4 3 10 19 12 23 12
15 0z m1430 -30 c3 -5 1 -10 -4 -10 -6 0 -11 5 -11 10 0 6 2 10 4 10 3 0 8 -4
11 -10z m-1531 -24 c-10 -8 -21 -12 -23 -10 -3 2 4 11 15 18 10 8 21 12 23 10
3 -2 -4 -11 -15 -18z m46 4 c0 -5 -5 -10 -11 -10 -5 0 -7 5 -4 10 3 6 8 10 11
10 2 0 4 -4 4 -10z m1487 -6 c-3 -3 -12 -4 -19 -1 -8 3 -5 6 6 6 11 1 17 -2
13 -5z m-1582 -44 c-10 -11 -20 -18 -22 -16 -3 2 4 13 13 25 10 11 20 18 23
16 2 -3 -4 -14 -14 -25z m75 20 c0 -5 -8 -10 -17 -10 -15 0 -16 2 -3 10 19 12
20 12 20 0z m1487 4 c-3 -3 -12 -4 -19 -1 -8 3 -5 6 6 6 11 1 17 -2 13 -5z
m-70 -30 c-3 -3 -12 -4 -19 -1 -8 3 -5 6 6 6 11 1 17 -2 13 -5z m53 -8 c0 -3
-4 -8 -10 -11 -5 -3 -10 -1 -10 4 0 6 5 11 10 11 6 0 10 -2 10 -4z m-57 -13
c-7 -2 -19 -2 -25 0 -7 3 -2 5 12 5 14 0 19 -2 13 -5z m-1496 -38 c-4 -8 -11
-15 -17 -15 -6 0 -6 7 2 20 14 22 24 19 15 -5z m1493 15 c0 -5 -7 -10 -16 -10
-8 0 -12 5 -9 10 3 6 10 10 16 10 5 0 9 -4 9 -10z m-4 -29 c18 15 18 2 0 -17
-11 -10 -15 -11 -18 -1 -3 8 -10 7 -22 -6 -10 -9 -23 -17 -29 -17 -7 0 2 11
18 24 17 14 32 20 33 15 3 -6 10 -5 18 2z m42 -42 c-3 -8 -7 -3 -11 10 -4 17
-3 21 5 13 5 -5 8 -16 6 -23z m-1594 -5 c3 -8 2 -12 -4 -9 -6 3 -10 10 -10 16
0 14 7 11 14 -7z m-23 -16 c11 -21 11 -22 -4 -9 -10 7 -17 17 -17 22 0 15 9
10 21 -13z m1319 -28 c0 -6 -61 -9 -167 -8 l-168 2 165 6 c91 3 166 7 168 8 1
1 2 -2 2 -8z m615 -20 c13 -6 15 -9 5 -9 -8 0 -22 4 -30 9 -18 12 -2 12 25 0z
m104 -25 c30 -8 58 -12 62 -10 4 3 12 -2 19 -10 16 -20 10 -19 -85 10 -87 26
-84 34 4 10z m-715 -10 c11 -8 15 -15 10 -15 -6 0 -14 4 -20 10 -5 5 -81 11
-169 13 l-160 3 160 1 c127 2 164 -1 179 -12z m-1387 -27 c-3 -8 -6 -5 -6 6
-1 11 2 17 5 13 3 -3 4 -12 1 -19z m-4 -38 c3 -11 1 -18 -4 -14 -5 3 -9 12 -9
20 0 20 7 17 13 -6z m-23 -15 c7 -9 8 -15 2 -15 -5 0 -12 7 -16 15 -3 8 -4 15
-2 15 2 0 9 -7 16 -15z m1015 -5 c-3 -5 -1 -10 5 -10 6 0 8 -4 5 -10 -10 -17
-25 -11 -25 10 0 11 5 20 11 20 5 0 7 -4 4 -10z m362 -156 c-3 -3 -12 -4 -19
-1 -8 3 -5 6 6 6 11 1 17 -2 13 -5z m-1430 -36 c-3 -8 -6 -5 -6 6 -1 11 2 17
5 13 3 -3 4 -12 1 -19z m1256 -25 c-24 -2 -62 -2 -85 0 -24 2 -5 4 42 4 47 0
66 -2 43 -4z m1018 -59 c43 -10 79 -21 79 -24 -1 -3 -20 -18 -43 -34 l-42 -29
28 31 28 30 -73 17 c-40 10 -80 22 -88 27 -17 10 -18 11 111 -18z m-1014 10
c-3 -3 -12 -4 -19 -1 -8 3 -5 6 6 6 11 1 17 -2 13 -5z m-1286 -37 c-8 -8 -11
-7 -11 4 0 9 3 19 7 23 4 4 9 2 11 -4 3 -7 -1 -17 -7 -23z m36 11 c-3 -8 -6
-5 -6 6 -1 11 2 17 5 13 3 -3 4 -12 1 -19z m1186 -75 c-13 -2 -33 -2 -45 0
-13 2 -3 4 22 4 25 0 35 -2 23 -4z m1067 4 c0 -2 -10 -12 -22 -23 l-23 -19 19
23 c18 21 26 27 26 19z m-1082 -72 c-3 -3 -9 2 -12 12 -6 14 -5 15 5 6 7 -7
10 -15 7 -18z m75 9 c-2 -6 -15 -9 -29 -6 -28 5 -17 18 14 18 11 0 18 -5 15
-12z m-98 -4 c3 -5 1 -10 -4 -10 -6 0 -11 5 -11 10 0 6 2 10 4 10 3 0 8 -4 11
-10z m-149 -97 c-10 -10 -19 5 -10 18 6 11 8 11 12 0 2 -7 1 -15 -2 -18z m40
5 c-10 -6 -20 -7 -24 -3 -9 8 20 25 31 18 5 -3 2 -10 -7 -15z m-1146 -44 c0
-2 -12 -4 -26 -4 -14 0 -23 4 -20 9 6 8 46 4 46 -5z m1011 4 c0 -10 2 -10 6 0
6 16 33 16 33 -1 0 -8 -9 -13 -22 -11 -13 1 -245 3 -515 3 -293 1 -493 5 -493
10 0 6 201 10 495 11 397 0 495 -2 496 -12z m15 -96 c-4 -3 -14 2 -24 12 -16
18 -16 18 6 6 13 -6 21 -14 18 -18z m-1106 -62 c0 -5 -2 -10 -4 -10 -3 0 -8 5
-11 10 -3 6 -1 10 4 10 6 0 11 -4 11 -10z m1085 -10 c-3 -5 -1 -10 5 -10 6 0
8 -5 4 -11 -4 -8 -9 -7 -15 2 -7 12 -3 29 7 29 3 0 2 -4 -1 -10z m-1138 -69
c0 -11 -5 -18 -9 -15 -4 3 -5 11 -1 19 7 21 12 19 10 -4z m1142 -51 c0 -10 -3
-8 -9 5 -12 27 -12 43 0 25 5 -8 9 -22 9 -30z m-1149 -21 c0 -6 -4 -7 -10 -4
-5 3 -10 11 -10 16 0 6 5 7 10 4 6 -3 10 -11 10 -16z m1196 -6 c-2 -9 -9 -19
-16 -21 -8 -3 -10 0 -5 8 4 7 2 16 -6 21 -11 7 -9 9 8 9 14 0 20 -5 19 -17z
m-1188 -38 c-3 -3 -9 2 -12 12 -6 14 -5 15 5 6 7 -7 10 -15 7 -18z m-28 -27
c0 7 5 10 11 6 8 -4 7 -9 -2 -15 -11 -7 -9 -9 6 -10 18 -1 18 -2 2 -6 -11 -3
-16 -10 -13 -19 3 -8 9 -21 12 -29 3 -8 2 -15 -4 -15 -12 0 -25 47 -17 60 3 5
1 11 -5 15 -5 3 -10 12 -10 18 0 7 4 6 10 -3 7 -11 10 -11 10 -2z m1190 -72
c0 -3 -4 -8 -10 -11 -5 -3 -10 -1 -10 4 0 6 5 11 10 11 6 0 10 -2 10 -4z m90
-114 c0 -1 -9 2 -20 8 -11 6 -20 15 -20 20 0 6 9 2 20 -7 11 -10 20 -19 20
-21z m-46 10 c2 -4 -12 -6 -32 -4 -56 5 -62 10 -15 11 23 1 44 -3 47 -7z
m-1154 -72 c0 -10 7 -21 16 -24 12 -5 14 -10 5 -20 -6 -7 -8 -16 -5 -19 11
-10 13 -58 3 -51 -5 3 -6 10 -3 16 5 7 1 9 -9 5 -8 -3 -18 0 -21 8 -3 10 0 12
11 8 12 -5 14 -1 8 15 -4 15 -2 22 7 22 7 0 2 7 -10 16 -12 8 -20 20 -17 25 4
5 -1 16 -9 25 -9 8 -16 20 -16 26 0 6 9 1 20 -12 11 -13 20 -31 20 -40z m1278
30 c-14 -4 -32 -11 -40 -16 -10 -6 -10 -4 1 9 7 9 25 17 40 16 l26 -1 -27 -8z
m-1253 -30 c3 -5 1 -10 -4 -10 -6 0 -11 5 -11 10 0 6 2 10 4 10 3 0 8 -4 11
-10z m1172 -31 c-9 -6 -15 -14 -12 -20 3 -5 -1 -6 -9 -3 -10 4 -16 1 -16 -7 0
-7 -3 -9 -7 -6 -9 9 28 46 47 46 11 0 11 -2 -3 -10z m-1234 -77 c14 -15 14
-19 3 -19 -8 0 -17 9 -19 19 -3 10 -4 18 -3 18 2 0 10 -8 19 -18z m1052 -12
c3 -6 -1 -7 -9 -4 -18 7 -21 14 -7 14 6 0 13 -4 16 -10z m-1028 -28 c-10 -10
-14 -22 -10 -26 4 -4 8 -13 8 -19 1 -7 11 -34 23 -60 12 -27 22 -54 21 -60 0
-7 -3 -5 -6 3 -3 8 -16 37 -29 63 -13 27 -22 53 -19 57 3 5 1 11 -5 15 -5 3
-10 13 -10 21 0 8 4 13 9 9 5 -3 12 -1 16 5 3 5 9 10 12 10 3 0 -1 -8 -10 -18z
m33 -7 c-7 -8 -16 -15 -21 -15 -5 0 -1 8 9 18 20 22 31 19 12 -3z m1037 9 c-3
-3 -12 -4 -19 -1 -8 3 -5 6 6 6 11 1 17 -2 13 -5z m-257 -122 c0 -14 -39 -46
-47 -39 -3 4 2 16 12 27 19 21 35 26 35 12z m-1400 -84 c0 -16 -3 -19 -11 -11
-6 6 -8 16 -5 22 11 17 16 13 16 -11z m1305 2 c3 -5 2 -10 -4 -10 -5 0 -13 5
-16 10 -3 6 -2 10 4 10 5 0 13 -4 16 -10z m94 7 c-2 -1 -15 -11 -29 -22 l-25
-20 19 23 c11 12 24 22 29 22 6 0 8 -1 6 -3z m-5424 -47 c-4 -11 -2 -20 4 -20
6 0 11 -8 11 -19 0 -10 10 -26 23 -34 18 -13 19 -16 5 -16 -9 -1 -26 11 -37
25 -22 28 -29 84 -10 84 6 0 8 -9 4 -20z m4732 3 c0 -10 -3 -23 -8 -28 -4 -6
-4 -17 1 -25 14 -22 12 -32 -4 -18 -8 7 -14 15 -14 18 1 21 -4 30 -12 25 -6
-4 -8 -10 -5 -15 3 -5 -3 -14 -13 -19 -15 -8 -23 -5 -40 19 l-21 28 31 -9 c20
-5 36 -5 41 0 5 5 17 7 26 4 13 -5 14 -3 4 8 -17 17 -16 29 0 29 8 0 14 -8 14
-17z m-36 -88 c5 4 16 2 25 -3 14 -8 14 -10 -1 -22 -8 -7 -19 -10 -22 -6 -4 4
-1 12 7 17 12 8 12 9 -4 7 -10 -2 -20 3 -22 10 -1 7 0 8 3 2 2 -5 9 -8 14 -5z
m544 -13 c-3 -3 -11 0 -18 7 -9 10 -8 11 6 5 10 -3 15 -9 12 -12z m-555 -23
c0 -11 -3 -11 -24 -3 -23 9 -20 23 4 17 11 -3 20 -9 20 -14z m-6 -34 c3 -8 1
-15 -3 -15 -5 0 -11 7 -15 15 -3 8 -1 15 3 15 5 0 11 -7 15 -15z m43 -7 c-3
-8 -6 -5 -6 6 -1 11 2 17 5 13 3 -3 4 -12 1 -19z m-18 -44 c-5 -6 -7 -20 -3
-30 5 -18 5 -18 -6 -1 -8 13 -9 22 -2 29 6 6 8 18 5 27 -4 13 -3 14 5 1 7 -9
7 -18 1 -26z m388 -9 c0 -8 -4 -12 -9 -9 -5 3 -6 10 -3 15 9 13 12 11 12 -6z
m-361 -59 c5 -29 -11 -36 -18 -8 -5 18 1 46 8 39 3 -3 7 -16 10 -31z m212 -56
c-7 -10 -14 -18 -15 -16 -6 6 9 36 18 36 5 0 4 -9 -3 -20z m-35 -13 c3 -8 -1
-14 -8 -14 -7 0 -11 6 -8 14 3 7 6 13 8 13 2 0 5 -6 8 -13z m-113 -17 c0 -5
-7 -7 -15 -4 -10 4 -15 0 -15 -12 0 -16 -2 -17 -10 -4 -14 22 -13 25 15 28 14
1 25 -3 25 -8z m40 -5 c0 -12 -19 -12 -23 0 -4 9 -1 12 9 8 7 -3 14 -7 14 -8z
m-59 -38 c-10 -9 -11 -8 -5 6 3 10 9 15 12 12 3 -3 0 -11 -7 -18z m22 -45 c-9
-25 -24 -42 -37 -42 -6 0 -4 5 4 10 13 8 13 10 -1 10 -9 0 -16 7 -16 15 0 13
3 13 19 -2 17 -15 18 -15 19 3 1 10 1 23 0 27 -1 5 3 6 8 2 6 -3 7 -13 4 -23z
m47 24 c0 -2 -7 -7 -16 -10 -8 -3 -12 -2 -9 4 6 10 25 14 25 6z m-4362 -175
c18 -11 11 -46 -8 -46 -9 0 -16 11 -18 28 -3 28 3 33 26 18z m-404 -791 c-6
-6 -10 -2 -11 12 -2 16 1 18 10 9 7 -7 8 -14 1 -21z m3136 -70 c0 -18 -128
-152 -151 -158 -8 -2 -9 5 -5 20 3 13 6 28 6 33 0 6 14 16 30 24 26 11 30 18
27 43 -1 16 -9 33 -17 38 -10 7 5 10 48 10 34 0 62 -4 62 -10z m-3115 -70 c-7
-11 51 -24 66 -15 8 6 8 2 0 -14 -7 -11 -30 -30 -51 -41 l-40 -20 0 54 c0 45
3 54 15 50 8 -4 13 -10 10 -14z m2635 -131 c29 -49 50 -92 47 -95 -4 -5 -49
71 -91 154 -32 63 -8 30 44 -59z m-110 41 c0 -4 -6 -10 -14 -13 -10 -4 -12 0
-9 14 5 18 23 18 23 -1z m-2195 -20 c-7 -11 -9 -29 -21 -168 -4 -46 -12 -89
-19 -95 -6 -7 -10 -18 -8 -24 7 -19 -16 -53 -31 -47 -7 3 -20 -2 -29 -10 -20
-21 -67 -38 -83 -32 -8 3 -20 -1 -28 -9 -7 -8 -16 -12 -19 -9 -3 3 -15 3 -26
-1 -15 -4 -21 -15 -21 -36 0 -28 8 -33 48 -32 8 1 0 -11 -18 -25 -18 -16 -32
-37 -32 -52 -1 -24 -33 -70 -49 -70 -4 0 -8 92 -9 205 0 113 -3 219 -7 236 -5
25 0 36 28 65 39 40 59 43 59 9 0 -30 3 -30 42 -7 27 15 31 16 41 1 17 -22 67
-31 74 -13 4 10 9 11 17 5 15 -13 46 21 46 49 0 24 28 70 42 70 5 0 6 -5 3
-10z m98 -66 c13 -16 23 -20 28 -13 8 14 47 -9 55 -34 3 -9 17 -24 32 -32 18
-11 20 -14 7 -10 -14 3 -29 -5 -50 -27 -17 -18 -25 -33 -19 -35 7 -2 10 -13 7
-23 -3 -11 0 -20 6 -20 6 0 11 -7 11 -15 0 -8 5 -15 10 -15 6 0 10 -4 10 -9 0
-5 -10 -8 -22 -8 -13 1 -40 -2 -61 -6 -31 -7 -38 -5 -44 10 -11 33 -25 44 -38
33 -9 -7 -16 -6 -25 5 -20 24 7 215 34 237 19 15 22 15 30 1 5 -9 18 -26 29
-39z m467 46 c12 -8 11 -10 -7 -10 -13 0 -23 5 -23 10 0 13 11 13 30 0z m-907
-25 c-7 -21 -13 -19 -13 6 0 11 4 18 10 14 5 -3 7 -12 3 -20z m553 -32 c-11
-11 -17 4 -9 23 7 18 8 18 11 1 2 -10 1 -21 -2 -24z m1320 -402 c2 -3 11 4 20
15 14 18 14 17 3 -6 -7 -14 -16 -38 -20 -55 -6 -28 -7 -28 -8 -5 -1 14 -17 63
-36 109 -45 106 -44 118 2 21 19 -41 37 -77 39 -79z m-1796 -151 c0 -5 -8 -10
-17 -10 -15 0 -16 2 -3 10 19 12 20 12 20 0z m145 -470 c-3 -5 -15 -10 -26
-10 -10 0 -19 5 -19 10 0 6 12 10 26 10 14 0 23 -4 19 -10z"/>
<path d="M12958 10633 c6 -2 10 -9 7 -14 -4 -5 1 -6 10 -2 13 5 14 7 3 14 -7
5 -17 8 -23 8 -5 0 -4 -3 3 -6z"/>
<path d="M8406 8891 c8 -8 43 -8 38 0 -2 4 -13 7 -24 6 -10 -1 -17 -3 -14 -6z"/>
<path d="M3826 12095 c-32 -160 -111 -423 -180 -598 -19 -48 -31 -87 -28 -87
4 0 16 7 26 15 46 35 45 15 -5 -131 -27 -81 -48 -149 -45 -151 2 -3 13 0 24 6
36 19 43 14 36 -31 -12 -85 -55 -285 -84 -395 -17 -62 -30 -115 -30 -119 0 -5
16 7 35 26 28 27 35 30 35 16 0 -27 -55 -207 -117 -384 -29 -84 -47 -150 -41
-146 7 4 28 18 46 31 18 14 36 23 39 20 19 -19 -72 -296 -157 -483 -22 -46
-37 -84 -35 -84 2 0 28 21 57 46 31 28 54 42 56 35 9 -26 -119 -374 -223 -606
l-26 -60 61 60 c57 56 61 58 54 30 -12 -50 -82 -223 -144 -353 -32 -67 -55
-120 -51 -118 4 3 32 37 61 76 47 60 70 83 70 66 0 -38 -106 -310 -209 -535
-34 -74 -61 -136 -61 -139 0 -3 27 28 60 69 33 41 65 75 70 77 27 9 -37 -187
-90 -279 -61 -103 -85 -129 -120 -124 -17 2 -45 11 -63 20 -53 27 -75 28 -83
3 -4 -13 -10 -25 -15 -28 -20 -13 176 -675 248 -837 l18 -41 110 42 c61 24
118 45 127 49 17 6 17 10 -3 59 -33 82 -32 89 0 21 35 -74 56 -80 96 -30 19
23 23 25 15 8 -11 -21 -10 -23 3 -18 24 9 292 93 375 117 39 11 72 25 72 30 0
5 6 7 14 4 8 -3 79 11 158 31 620 158 1360 251 2080 263 l106 2 -5 133 -6 134
119 83 c65 46 132 94 147 107 16 13 37 23 48 23 11 0 18 4 15 8 -2 4 20 25 49
47 57 41 62 57 15 53 -16 -1 -27 -5 -25 -8 2 -3 -5 -12 -16 -18 -19 -12 -19
-10 -14 35 13 125 35 358 35 376 0 13 -4 17 -9 12 -5 -6 -16 -64 -25 -130 -9
-66 -20 -149 -26 -185 -5 -36 -12 -85 -15 -110 -6 -43 -10 -47 -82 -93 -64
-41 -77 -46 -92 -35 -14 11 -14 11 -3 -4 11 -14 5 -22 -50 -61 l-63 -46 -2 27
c-10 124 -22 947 -14 950 6 2 33 21 60 43 29 23 56 37 62 33 7 -4 9 -3 6 3 -3
5 27 33 68 62 78 54 100 89 48 76 -15 -3 -30 -10 -33 -14 -3 -4 -53 -40 -111
-79 l-106 -70 -6 135 c-4 75 -7 176 -7 225 0 57 -4 87 -10 83 -6 -4 -10 -60
-10 -134 l0 -129 -26 -5 c-19 -3 -24 -1 -19 11 9 24 -6 85 -18 73 -15 -15 -27
-14 -27 4 0 36 -53 -4 -67 -50 -14 -44 -6 -67 19 -59 18 5 20 3 16 -21 -4 -17
-1 -28 8 -32 11 -4 11 -8 -1 -20 -8 -8 -15 -23 -15 -34 0 -28 -17 -23 -24 7
-4 15 -27 52 -52 82 -41 51 -44 56 -27 65 50 28 85 107 47 107 -12 0 -15 6
-10 24 3 14 1 28 -5 31 -6 5 -3 12 10 22 12 8 21 21 21 29 0 11 6 13 20 9 17
-5 20 -2 20 20 0 41 -17 63 -58 75 -46 12 -55 13 -47 0 3 -5 -4 -10 -15 -10
-16 0 -20 -5 -16 -15 3 -9 0 -15 -9 -15 -18 0 -19 21 -4 92 13 60 43 110 62
102 8 -2 22 5 32 16 l19 21 16 -21 c23 -31 89 -19 116 21 22 33 44 38 44 10 0
-10 7 -21 15 -25 22 -8 18 -29 -4 -23 -13 3 -21 -1 -24 -13 -3 -12 0 -17 8
-14 6 3 20 -7 30 -22 16 -24 18 -25 27 -10 7 12 6 22 -1 29 -6 6 -11 21 -11
34 0 13 -6 23 -12 23 -8 0 -5 7 6 15 15 11 22 12 27 3 6 -9 12 -8 24 2 14 12
18 12 25 0 7 -11 11 -11 24 -1 20 17 21 41 2 41 -8 0 -27 5 -43 11 -26 10 -27
11 -9 21 15 8 16 12 5 20 -11 8 -11 11 -1 15 9 4 10 8 2 18 -15 18 22 38 61
33 25 -4 29 -1 29 20 0 13 3 22 8 20 4 -2 19 -10 34 -17 36 -18 92 2 85 30 -3
10 1 20 8 22 18 7 11 48 -10 63 -10 8 -29 14 -42 14 -13 0 -23 5 -23 10 0 6 4
10 10 10 5 0 12 12 16 28 3 15 8 35 11 46 4 15 1 17 -24 12 -26 -6 -30 -3 -42
29 -12 35 -26 45 -33 23 -6 -17 -48 27 -48 50 0 9 -9 34 -20 55 -22 41 -27 93
-8 81 7 -4 8 -3 4 5 -12 19 13 42 34 31 11 -6 21 -5 28 2 8 8 13 4 18 -16 3
-14 13 -26 21 -26 11 0 13 -4 5 -12 -5 -7 -6 -22 -2 -33 5 -13 2 -24 -9 -32
-14 -11 -14 -14 4 -31 31 -31 66 -34 105 -11 26 16 30 23 19 30 -11 7 -11 9 4
9 20 0 22 11 5 28 -9 9 -9 12 0 12 7 0 12 4 12 8 0 13 -56 42 -82 42 -14 0
-19 3 -11 8 7 4 19 23 27 42 l14 35 11 -27 c5 -15 24 -34 41 -43 l30 -16 0 38
c0 21 5 45 10 53 9 13 12 13 21 -3 10 -17 12 -17 23 -1 12 16 14 15 29 -7 10
-13 17 -29 17 -37 0 -9 5 -10 19 -2 32 17 37 12 36 -37 0 -45 1 -47 33 -55 22
-6 32 -14 29 -22 -3 -8 -1 -18 5 -24 8 -8 7 -13 -5 -18 -14 -5 -12 -10 13 -34
17 -15 30 -35 30 -44 0 -15 2 -15 24 -1 23 15 25 14 44 -12 17 -23 22 -25 36
-14 17 14 17 14 21 -44 1 -15 7 -19 27 -17 22 2 25 -1 21 -18 -3 -12 -21 -32
-40 -44 -27 -19 -31 -25 -18 -30 9 -3 27 -6 39 -6 28 0 67 -29 48 -36 -6 -3
-10 -10 -7 -15 12 -18 -27 -59 -56 -59 -16 0 -29 -4 -29 -8 0 -9 -81 -52 -97
-52 -12 0 -83 -84 -83 -97 1 -14 50 -45 64 -40 9 4 12 15 8 34 -5 25 -4 27 12
14 15 -13 18 -12 23 7 5 20 7 20 33 7 16 -8 30 -20 33 -27 3 -9 11 -5 25 12
l20 25 7 -27 c4 -15 4 -36 0 -46 -8 -29 7 -34 49 -17 44 19 46 19 46 0 0 -8 8
-15 17 -15 13 0 14 -3 5 -12 -9 -9 -8 -16 5 -30 23 -26 33 -22 33 10 0 39 21
37 62 -5 l33 -34 -3 -262 c-2 -144 -6 -264 -8 -266 -2 -2 -14 3 -28 12 -13 9
-27 13 -31 9 -3 -4 -21 -12 -38 -19 l-32 -11 33 -7 c18 -4 35 -12 38 -17 3 -5
-6 -6 -21 -2 -18 4 -30 2 -35 -6 -6 -10 -15 -8 -42 8 -37 23 -48 20 -66 -21
-8 -18 -18 -27 -26 -24 -7 3 -18 1 -24 -5 -7 -7 -12 -3 -17 12 -5 17 -9 19
-16 9 -10 -17 -21 -7 -23 24 -1 22 -3 23 -22 11 -11 -8 -30 -27 -42 -43 -19
-26 -20 -32 -7 -45 13 -13 13 -15 -5 -21 -16 -5 -19 -12 -14 -27 5 -18 3 -20
-30 -16 -34 4 -36 2 -36 -25 l0 -28 -31 22 c-26 18 -30 27 -27 55 5 40 -14 51
-58 32 l-29 -12 28 -4 c22 -3 27 -8 27 -32 0 -28 -49 -99 -50 -72 0 17 -20 15
-20 -3 0 -20 -27 -32 -90 -39 -54 -6 -99 -29 -108 -56 -4 -10 1 -11 19 -6 13
4 41 10 62 12 35 4 38 2 32 -16 -5 -15 -2 -20 11 -20 16 0 16 -1 -2 -15 -15
-12 -16 -16 -6 -23 8 -5 13 -13 12 -18 -1 -5 3 -10 9 -12 6 -2 11 1 11 6 0 6
15 14 33 18 30 6 31 7 10 15 -13 5 -23 12 -23 18 0 13 42 22 56 10 16 -13 24
10 12 34 -5 10 -8 20 -6 22 9 10 54 -23 66 -48 13 -28 32 -28 32 -1 0 8 7 29
16 45 11 23 18 28 28 20 7 -6 16 -8 20 -4 4 4 13 8 19 8 31 2 67 19 67 31 0 8
9 14 21 14 15 0 19 5 15 18 -5 16 -2 18 22 14 19 -2 35 2 46 14 17 17 19 16
46 -14 25 -29 28 -30 33 -12 3 10 -1 25 -9 31 -12 10 -12 14 3 25 10 7 23 14
30 14 6 0 27 16 46 35 22 22 45 35 61 35 14 0 30 8 35 18 10 16 11 15 12 -3 1
-11 1 -73 -1 -137 -1 -74 2 -118 8 -118 6 0 5 -17 -4 -46 l-13 -45 35 -15 c28
-12 33 -18 24 -29 -8 -10 -8 -15 0 -20 7 -5 5 -11 -7 -20 -17 -13 -17 -14 0
-20 20 -8 22 -38 3 -54 -18 -15 -26 -48 -12 -48 6 0 24 -3 40 -7 23 -6 27 -4
23 8 -3 8 -7 57 -8 108 -1 51 -4 97 -7 103 -18 30 -9 52 29 69 42 19 44 23 29
46 -8 12 -13 13 -30 2 -19 -11 -20 -10 -20 30 0 24 -3 108 -5 188 -2 80 -7
304 -11 498 l-7 353 23 17 c23 16 45 32 213 152 42 30 77 57 77 60 0 3 -4 11
-9 19 -7 11 -36 -4 -132 -69 -68 -46 -129 -83 -136 -83 -7 0 -10 -3 -8 -7 2
-3 -5 -11 -16 -18 -18 -12 -19 -9 -19 76 0 147 -13 483 -18 477 -3 -3 -6 -53
-7 -112 0 -60 -2 -142 -3 -183 l-3 -75 -24 28 c-14 15 -25 37 -25 49 0 15 -5
19 -20 15 -13 -3 -21 1 -25 14 -5 15 -16 19 -51 19 -32 0 -44 4 -44 15 0 9
-10 15 -22 16 -13 0 -18 3 -11 5 7 3 9 12 6 20 -3 8 0 14 6 14 6 0 8 6 5 14
-3 8 7 18 25 26 52 21 52 113 1 140 l-22 12 23 24 c12 13 27 24 34 24 17 0 16
39 -2 66 -20 32 -4 52 48 60 26 4 48 17 69 40 17 19 36 34 42 34 9 0 9 3 0 12
-17 17 -15 26 9 33 16 6 18 9 8 22 -7 8 -29 23 -48 33 -28 15 -32 19 -15 20
12 0 33 9 48 21 23 18 30 19 61 9 19 -6 37 -15 40 -19 6 -10 55 -2 75 13 8 5
12 6 8 2 -10 -11 21 -35 45 -36 12 0 23 11 30 30 7 20 18 30 32 30 28 1 59 26
52 44 -3 8 -1 16 5 18 6 2 12 16 14 31 2 22 -4 31 -34 47 -20 10 -31 19 -24
20 14 0 17 46 3 54 -5 3 -7 15 -4 26 3 12 -5 33 -21 54 -14 19 -26 46 -26 60
0 22 4 26 30 26 17 0 45 7 61 16 25 12 28 18 18 30 -9 11 -8 14 5 14 18 0 22
15 6 25 -8 5 -8 11 0 20 13 16 -16 39 -62 50 -34 9 -34 9 -3 43 14 15 25 32
25 38 0 20 -29 37 -55 32 -30 -6 -30 -3 -6 44 20 41 17 93 -5 84 -9 -3 -14 2
-14 14 0 14 -5 18 -16 13 -9 -3 -20 0 -24 8 -7 11 -13 10 -32 -7 -38 -35 -56
-36 -94 -8 l-34 26 0 -33 0 -34 -45 3 c-42 4 -60 -8 -35 -23 17 -10 -1 -27
-22 -22 -11 3 -21 0 -25 -9 -4 -11 -9 -12 -19 -3 -11 9 -16 6 -24 -15 -5 -14
-16 -26 -24 -26 -7 0 -19 -7 -26 -15 -7 -8 -26 -15 -42 -15 -24 0 -29 -4 -24
-16 4 -10 -6 -31 -24 -54 -21 -26 -26 -40 -18 -43 11 -3 11 -9 0 -26 -11 -20
-10 -22 19 -28 27 -5 29 -7 16 -21 -14 -13 -18 -12 -43 7 -33 26 -62 26 -91 2
-28 -24 -29 -56 -2 -100 l20 -33 -36 6 c-41 8 -95 -1 -95 -14 0 -5 12 -16 28
-24 l27 -15 -47 -21 c-33 -14 -45 -25 -42 -35 4 -10 0 -15 -10 -15 -13 0 -15
-4 -6 -19 7 -14 6 -21 -3 -24 -8 -3 -3 -13 15 -31 41 -39 45 -64 14 -94 -22
-23 -26 -24 -26 -8 0 13 -5 16 -16 12 -9 -4 -23 -1 -30 5 -12 10 -18 4 -32
-30 -18 -43 -35 -50 -61 -27 -9 7 -27 17 -39 21 -21 6 -23 4 -20 -21 3 -24 -1
-29 -32 -37 -44 -11 -59 -24 -37 -33 23 -8 21 -21 -4 -29 l-21 -7 23 -24 22
-23 -37 6 c-23 4 -36 2 -36 -6 0 -6 -9 -11 -21 -11 -11 0 -17 -5 -14 -10 3 -6
-1 -13 -10 -16 -11 -5 -15 -14 -11 -30 14 -54 -36 -80 -82 -43 l-27 21 -3 -29
c-3 -27 -5 -28 -42 -25 -41 4 -50 -4 -28 -26 9 -9 6 -12 -15 -12 -15 0 -27 -5
-27 -11 0 -6 -9 -8 -20 -4 -15 5 -20 2 -20 -13 0 -13 -9 -22 -25 -26 -14 -4
-25 -11 -25 -16 0 -6 -13 -10 -30 -10 -22 0 -28 -4 -24 -14 3 -8 -6 -27 -20
-42 -19 -21 -23 -32 -15 -45 6 -12 5 -20 -1 -24 -15 -9 -2 -25 21 -25 23 0 25
-15 3 -24 -9 -3 -27 3 -41 14 -32 25 -44 25 -71 1 -25 -21 -28 -59 -7 -87 22
-29 18 -35 -22 -28 -21 3 -48 2 -61 -3 l-23 -9 25 -14 c36 -19 33 -27 -14 -41
-25 -8 -39 -17 -36 -25 3 -7 -2 -15 -11 -18 -12 -5 -13 -9 -4 -20 9 -11 9 -15
-1 -19 -9 -4 -7 -11 8 -24 39 -33 46 -58 24 -85 -15 -17 -22 -20 -28 -10 -5 7
-16 10 -25 6 -11 -4 -17 -1 -17 7 -1 18 -40 -29 -40 -47 0 -18 -30 -17 -54 1
-29 22 -49 19 -43 -6 4 -13 0 -22 -11 -25 -9 -3 -28 -10 -41 -15 -22 -9 -23
-11 -5 -23 17 -13 17 -14 -5 -21 -21 -6 -21 -8 -7 -24 23 -25 20 -28 -15 -23
-24 4 -30 2 -24 -8 6 -10 2 -12 -13 -8 -14 4 -22 2 -22 -7 0 -7 -6 -15 -12
-18 -10 -3 -9 -12 5 -37 24 -44 22 -53 -16 -70 -37 -17 -41 -34 -9 -38 26 -4
26 -2 7 -38 -21 -41 -19 -57 5 -49 16 5 20 2 20 -15 0 -16 5 -20 18 -16 23 7
75 -7 80 -22 2 -8 -2 -10 -13 -6 -15 6 -16 2 -10 -24 5 -26 3 -32 -10 -32 -9
0 -26 -5 -37 -11 -20 -11 -21 -12 -4 -25 17 -12 16 -13 -6 -25 -30 -16 -38
-28 -38 -61 0 -41 -10 -60 -25 -48 -6 5 -24 11 -38 12 -22 2 -31 13 -56 69
-32 72 -66 188 -57 197 4 3 17 -5 31 -18 14 -13 25 -18 25 -12 0 6 -4 14 -10
17 -5 3 -15 15 -21 26 -9 19 -9 19 10 10 31 -17 34 -13 13 22 -33 54 -113 317
-96 317 3 0 14 -5 25 -10 23 -13 23 -16 -1 47 -47 125 -97 373 -74 373 3 0 14
-5 25 -10 26 -15 25 -3 -12 108 -31 95 -33 136 -4 112 22 -18 19 1 -11 72 -41
98 -132 381 -145 451 l-12 65 -38 -146 c-20 -81 -52 -185 -69 -232 -18 -47
-38 -102 -46 -123 l-13 -38 22 16 c12 8 25 15 29 15 3 0 -11 -52 -32 -115 -21
-63 -36 -115 -34 -115 3 0 14 5 25 10 17 10 19 7 19 -19 0 -35 -43 -245 -65
-317 -21 -69 -19 -79 11 -47 l25 28 -6 -40 c-4 -22 -31 -113 -61 -203 -30 -90
-54 -166 -54 -168 0 -3 13 4 29 16 16 11 32 16 35 11 12 -19 -44 -192 -110
-338 -18 -40 -31 -73 -29 -73 2 0 20 14 40 31 20 18 38 29 42 26 6 -6 -49
-174 -84 -256 l-19 -45 -42 108 c-23 59 -42 112 -42 118 0 5 14 -1 32 -13 20
-15 30 -18 26 -8 -3 7 -44 106 -91 219 -110 266 -107 254 -67 245 l31 -7 -50
63 c-28 34 -49 64 -47 66 2 2 23 -1 47 -6 24 -5 45 -8 47 -7 1 2 -23 61 -54
131 -51 114 -110 302 -99 313 2 3 20 -9 40 -27 20 -17 38 -31 41 -31 3 0 -9
20 -26 45 -34 50 -33 52 12 29 l31 -16 -25 43 c-28 49 -124 326 -121 349 1 8
-3 30 -8 48 -13 41 -7 49 23 28 36 -26 38 -20 12 45 -43 104 -114 397 -114
467 l0 64 35 -22 c21 -13 35 -17 35 -10 0 6 -19 68 -43 138 -37 110 -48 172
-31 172 3 0 14 -5 26 -11 18 -10 19 -8 13 13 -4 12 -23 64 -42 113 -79 200
-183 544 -195 640 -4 29 -4 28 -12 -10z m3448 -633 c9 -14 -14 -86 -32 -99 -9
-7 -25 -13 -36 -13 -18 1 -17 3 7 16 21 11 27 21 24 35 -3 12 0 22 9 26 9 3
12 13 9 24 -6 19 9 27 19 11z m-179 -102 c3 -5 1 -10 -4 -10 -6 0 -11 5 -11
10 0 6 2 10 4 10 3 0 8 -4 11 -10z m-349 -597 c-4 -36 -36 -45 -36 -10 0 27 7
37 26 37 8 0 12 -10 10 -27z m-556 -386 c0 -41 -25 -77 -53 -76 l-22 0 23 11
c13 7 22 20 22 35 0 12 5 23 11 23 6 0 8 9 4 20 -4 11 -2 20 4 20 6 0 11 -15
11 -33z m128 -457 c10 0 12 -4 4 -12 -5 -8 -6 -22 -1 -33 11 -30 11 -32 -10
-38 -15 -4 -21 5 -31 48 -15 62 -4 109 13 63 6 -16 17 -28 25 -28z m862 -7 c0
-20 -3 -24 -11 -16 -7 7 -9 19 -6 27 10 24 17 19 17 -11z m-9 -66 c-10 -9 -11
-8 -5 6 3 10 9 15 12 12 3 -3 0 -11 -7 -18z m-1451 -77 c0 -23 -4 -30 -20 -30
-26 0 -28 46 -2 53 9 3 18 5 20 6 1 0 2 -12 2 -29z m1450 -72 c0 -59 -1 -60
-18 -45 -10 10 -24 17 -30 17 -12 0 -52 39 -52 51 0 4 17 9 38 11 23 2 36 8
35 16 -2 6 4 12 12 12 12 0 15 -14 15 -62z m-1640 -8 c0 -5 -2 -10 -4 -10 -3
0 -8 5 -11 10 -3 6 -1 10 4 10 6 0 11 -4 11 -10z m627 4 c-3 -3 -12 -4 -19 -1
-8 3 -5 6 6 6 11 1 17 -2 13 -5z m1012 -121 c0 -16 -3 -22 -6 -13 -3 8 -10 21
-16 28 -7 8 -5 12 7 12 11 0 16 -8 15 -27z m-1306 -285 c19 -17 18 -18 -17
-18 -35 0 -36 1 -36 37 0 36 0 37 17 18 10 -11 26 -28 36 -37z m233 -336 c-3
-3 -14 2 -23 10 -10 9 -25 18 -33 21 -10 4 -8 6 6 6 12 1 28 9 35 18 13 15 14
13 17 -16 2 -18 1 -35 -2 -39z m-57 -112 c32 0 39 3 35 15 -4 9 0 15 10 15 13
0 16 -11 16 -55 l0 -55 -32 20 c-20 12 -41 17 -56 13 -17 -4 -31 2 -51 21 -24
23 -27 31 -18 49 l10 23 23 -23 c16 -16 35 -23 63 -23z m-94 -93 c-24 -13 -18
-61 11 -91 37 -36 60 -36 56 2 -5 31 9 28 47 -12 l32 -33 -1 -214 c-1 -229 -2
-249 -14 -250 -16 -2 -95 55 -89 64 3 6 1 7 -5 3 -9 -5 -99 49 -122 74 -3 3
-14 10 -25 16 -16 9 -19 20 -17 58 1 25 -1 46 -6 46 -20 0 -45 128 -58 294
l-4 49 20 -21 c11 -12 20 -35 20 -51 0 -23 4 -29 15 -24 10 3 15 0 13 -8 -2
-9 4 -13 15 -11 9 2 17 -2 17 -8 0 -19 29 -10 49 16 13 17 21 41 21 65 0 39
-8 45 -49 39 -9 -1 -5 9 10 28 l24 30 28 -26 c23 -22 25 -27 12 -35z m-207
-145 c10 -80 10 -107 1 -118 -9 -10 -15 -11 -25 -3 -10 8 -16 6 -25 -9 -10
-16 -16 -18 -31 -8 -14 8 -20 8 -27 -2 -9 -15 -17 -15 -43 -1 -23 12 -23 29
-1 29 13 0 14 3 5 12 -9 9 -9 15 0 25 9 11 4 20 -21 43 l-32 30 22 29 c25 34
49 47 59 31 3 -5 19 7 35 28 25 33 32 37 50 28 18 -8 23 -24 33 -114z m362 98
c0 -11 -2 -20 -4 -20 -2 0 -6 9 -9 20 -3 11 -1 20 4 20 5 0 9 -9 9 -20z m-556
-15 c3 -8 1 -15 -4 -15 -6 0 -10 7 -10 15 0 8 2 15 4 15 2 0 6 -7 10 -15z
m-1071 -56 c-6 -23 -23 -15 -23 11 0 12 5 17 14 14 8 -3 12 -13 9 -25z m1485
-462 c67 -49 122 -94 123 -100 3 -46 -3 -457 -8 -474 -7 -31 -35 -29 -55 5 -9
15 -37 48 -62 75 -41 43 -46 52 -46 95 0 39 -4 49 -22 57 -19 8 -24 21 -29 66
-4 34 -15 69 -28 87 -31 44 -27 76 15 122 46 50 55 110 18 110 -21 0 -54 33
-54 53 0 11 6 7 148 -96z m-1444 -521 c-3 -8 -13 -12 -25 -9 -32 9 -32 23 0
23 22 0 29 -4 25 -14z m89 7 c-7 -2 -19 -2 -25 0 -7 3 -2 5 12 5 14 0 19 -2
13 -5z m-579 -79 c3 -8 2 -12 -4 -9 -6 3 -10 10 -10 16 0 14 7 11 14 -7z m60
-100 c50 -83 50 -84 37 -84 -5 0 -28 36 -50 80 -23 44 -40 80 -37 80 2 0 25
-34 50 -76z"/>
<path d="M12986 11778 c-9 -37 -7 -46 12 -44 9 2 17 8 16 14 -1 7 -2 21 -2 32
-3 27 -18 25 -26 -2z"/>
<path d="M7597 10043 c-8 -8 -9 -43 -1 -43 3 0 14 5 25 11 16 8 18 13 8 25
-13 15 -22 18 -32 7z"/>
<path d="M7546 9981 c-4 -7 -5 -15 -2 -18 9 -9 19 4 14 18 -4 11 -6 11 -12 0z"/>
<path d="M16079 9890 l-21 -27 -23 23 c-29 29 -45 31 -45 5 0 -13 -9 -21 -29
-26 -20 -4 -28 -11 -24 -21 7 -19 1 -18 -41 7 -23 13 -36 17 -36 9 0 -7 -7
-10 -15 -6 -9 3 -15 0 -15 -10 0 -8 -4 -12 -10 -9 -16 10 -12 -28 6 -53 14
-20 14 -22 -3 -22 -10 -1 -29 -7 -42 -14 -21 -12 -22 -15 -8 -22 11 -6 14 -17
10 -32 -7 -29 -21 -28 -34 2 -32 68 -124 47 -112 -26 5 -32 2 -36 -21 -42 -29
-7 -34 -23 -11 -32 13 -5 13 -9 0 -34 -19 -36 -19 -44 0 -36 10 4 15 -1 15
-14 0 -11 4 -20 8 -20 5 0 16 -16 25 -35 16 -33 16 -35 -1 -35 -10 0 -27 -7
-38 -15 -17 -14 -18 -16 -2 -25 15 -9 15 -13 2 -38 -12 -24 -12 -27 2 -30 12
-3 15 -11 10 -35 -8 -39 -12 -43 -31 -27 -20 17 -29 7 -29 -34 0 -33 -1 -33
-36 -29 -34 5 -37 3 -47 -31 -6 -20 -7 -38 -2 -41 12 -8 0 -68 -17 -81 -11 -8
-10 -16 6 -41 18 -30 18 -31 -3 -53 -15 -15 -18 -24 -10 -27 7 -2 9 -11 6 -19
-3 -8 0 -14 6 -14 25 0 10 -49 -21 -71 -18 -13 -36 -27 -39 -31 -3 -5 -14 1
-24 12 -35 39 -88 2 -83 -58 2 -31 0 -37 -14 -34 -14 2 -18 -4 -18 -33 0 -28
-4 -35 -20 -35 -26 0 -25 -8 2 -37 l21 -23 -27 -25 c-16 -15 -25 -32 -22 -40
3 -9 -1 -15 -11 -15 -12 0 -14 -7 -10 -29 5 -23 2 -30 -19 -40 -22 -10 -26 -8
-36 14 -6 13 -15 22 -20 19 -5 -3 -15 -1 -23 6 -11 9 -17 6 -31 -15 -13 -20
-19 -23 -31 -14 -18 16 -26 6 -25 -31 1 -27 -3 -30 -28 -30 -16 0 -32 -5 -36
-12 -12 -19 -13 -62 -2 -75 8 -11 7 -12 -7 -6 -14 5 -17 3 -12 -10 4 -12 1
-17 -9 -17 -13 0 -15 -7 -10 -35 6 -28 4 -35 -9 -35 -24 0 -13 -23 18 -38 26
-13 27 -14 12 -43 -14 -26 -14 -31 -1 -44 8 -8 19 -15 25 -15 17 0 1 -29 -20
-35 -10 -3 -27 -1 -39 5 -16 9 -20 8 -20 -5 0 -9 -4 -13 -10 -10 -5 3 -10 -1
-10 -9 0 -9 -4 -16 -10 -16 -5 0 -7 -13 -3 -31 5 -29 4 -31 -16 -24 -16 5 -21
2 -21 -12 0 -11 6 -28 14 -38 13 -18 11 -20 -17 -30 -24 -8 -33 -17 -35 -37
-2 -16 0 -28 5 -28 4 1 77 61 162 135 143 125 157 135 210 145 31 6 65 13 77
15 12 3 92 61 179 130 140 112 167 130 242 156 51 18 124 56 182 94 94 61 98
63 209 80 62 10 115 22 118 26 11 19 45 402 54 626 10 214 6 603 -6 661 -2 12
-11 22 -19 22 -7 0 -17 9 -20 20 -4 11 -11 18 -16 15 -5 -4 -9 -2 -9 3 0 5 -9
12 -20 15 -15 4 -27 -3 -41 -23z m-329 -1296 c26 -6 31 -10 25 -28 -12 -40
-13 -71 -3 -77 6 -4 6 -9 1 -12 -4 -3 -27 12 -51 33 -35 33 -42 43 -36 65 7
27 13 29 64 19z m-16 -135 c-15 -25 -55 0 -47 29 l6 23 23 -22 c13 -12 21 -26
18 -30z m66 1 c-24 -15 -37 -11 -16 5 11 8 22 12 25 9 3 -3 -1 -9 -9 -14z
m-35 -20 c6 -11 -44 -34 -53 -25 -3 3 0 5 6 5 7 0 12 7 12 15 0 17 25 20 35 5z
m-735 -410 c0 -5 -7 -10 -16 -10 -8 0 -12 5 -9 10 3 6 10 10 16 10 5 0 9 -4 9
-10z"/>
<path d="M6847 9853 c-4 -3 -7 -12 -7 -20 0 -15 26 -18 34 -4 7 11 -18 33 -27
24z"/>
<path d="M6282 9718 c6 -18 28 -21 28 -4 0 9 -7 16 -16 16 -9 0 -14 -5 -12
-12z"/>
<path d="M8350 9664 c0 -8 5 -12 10 -9 6 3 10 10 10 16 0 5 -4 9 -10 9 -5 0
-10 -7 -10 -16z"/>
<path d="M7767 9633 c-3 -7 -3 -24 2 -65 1 -8 6 -7 17 3 10 11 13 24 8 42 -6
26 -19 35 -27 20z"/>
<path d="M7605 9560 c3 -5 17 -10 31 -10 14 0 22 4 19 10 -3 6 -17 10 -31 10
-14 0 -22 -4 -19 -10z"/>
<path d="M7696 9552 c-2 -4 -1 -14 5 -22 6 -11 9 -12 9 -2 0 8 5 10 13 6 8 -5
8 -2 -2 9 -15 19 -18 20 -25 9z"/>
<path d="M6017 9506 c-3 -8 2 -16 14 -19 16 -4 17 -2 8 14 -12 23 -15 23 -22
5z"/>
<path d="M7806 9505 c4 -9 15 -20 25 -26 11 -5 16 -15 13 -21 -5 -7 -2 -8 5
-4 7 5 21 0 31 -9 17 -16 40 -14 40 4 0 10 -94 71 -109 71 -6 0 -8 -7 -5 -15z"/>
<path d="M6035 9450 c-3 -6 1 -7 9 -4 18 7 21 14 7 14 -6 0 -13 -4 -16 -10z"/>
<path d="M7795 9450 c-3 -6 1 -7 9 -4 18 7 21 14 7 14 -6 0 -13 -4 -16 -10z"/>
<path d="M7940 9411 c0 -6 5 -13 10 -16 6 -4 7 -11 4 -17 -4 -7 -2 -8 5 -4 6
4 18 2 26 -4 12 -10 15 -9 15 7 0 10 -5 24 -12 31 -14 14 -48 16 -48 3z"/>
<path d="M6110 9380 c0 -5 5 -10 10 -10 6 0 10 5 10 10 0 6 -4 10 -10 10 -5 0
-10 -4 -10 -10z"/>
<path d="M6688 9335 c-9 -21 -9 -29 4 -41 14 -14 16 -12 20 21 5 44 -8 55 -24
20z"/>
<path d="M8030 9340 c0 -5 5 -10 10 -10 6 0 10 5 10 10 0 6 -4 10 -10 10 -5 0
-10 -4 -10 -10z"/>
<path d="M8016 9308 c3 -5 10 -6 15 -3 13 9 11 12 -6 12 -8 0 -12 -4 -9 -9z"/>
<path d="M6820 9270 c0 -12 17 -12 45 0 17 7 15 9 -12 9 -18 1 -33 -3 -33 -9z"/>
<path d="M6762 9259 c2 -6 8 -10 13 -10 5 0 11 4 13 10 2 6 -4 11 -13 11 -9 0
-15 -5 -13 -11z"/>
<path d="M6608 9207 c-45 -31 -57 -53 -26 -51 21 2 88 56 88 72 0 18 -9 14
-62 -21z"/>
<path d="M11597 9183 c-4 -3 -7 -11 -7 -17 0 -6 5 -5 12 2 6 6 9 14 7 17 -3 3
-9 2 -12 -2z"/>
<path d="M7604 9145 c-16 -38 -19 -121 -5 -129 5 -3 11 0 14 8 9 24 20 156 13
156 -4 0 -14 -16 -22 -35z"/>
<path d="M6492 9128 c-14 -14 -16 -48 -4 -48 14 0 53 46 45 53 -10 11 -28 8
-41 -5z"/>
<path d="M6437 9063 c-4 -3 -7 -11 -7 -17 0 -6 5 -5 12 2 6 6 9 14 7 17 -3 3
-9 2 -12 -2z"/>
<path d="M6386 8992 c-3 -5 1 -9 9 -9 8 0 12 4 9 9 -3 4 -7 8 -9 8 -2 0 -6 -4
-9 -8z"/>
<path d="M7797 8984 c-19 -19 -1 -25 63 -22 39 2 71 9 73 14 2 11 -125 18
-136 8z"/>
<path d="M7080 8755 c0 -8 2 -15 4 -15 2 0 6 7 10 15 3 8 1 15 -4 15 -6 0 -10
-7 -10 -15z"/>
<path d="M12370 8633 c0 -20 -5 -23 -36 -23 -28 0 -35 -3 -30 -15 8 -23 -10
-18 -37 9 -24 24 -67 27 -67 4 0 -5 -4 -6 -10 -3 -14 8 -13 -41 1 -67 8 -15 8
-19 -1 -13 -6 4 -27 4 -47 0 -32 -6 -34 -8 -20 -23 14 -15 14 -19 1 -37 -13
-17 -16 -18 -24 -5 -5 8 -10 20 -10 26 0 19 -36 45 -56 41 -43 -9 -54 -19 -54
-52 0 -29 -4 -34 -30 -40 -32 -7 -36 -15 -20 -31 8 -8 7 -20 -2 -39 -10 -22
-10 -29 -1 -32 7 -3 9 -11 6 -19 -3 -8 -1 -14 5 -14 5 0 13 -11 16 -24 3 -13
9 -31 12 -40 5 -12 0 -16 -22 -16 -16 0 -35 -4 -43 -9 -11 -7 -10 -10 4 -18
16 -10 16 -12 -1 -38 -14 -21 -15 -30 -6 -33 18 -6 15 -30 -8 -54 -18 -20 -20
-20 -26 -3 -7 17 -8 17 -21 -1 -7 -10 -13 -28 -13 -41 0 -20 -3 -22 -19 -13
-24 12 -64 13 -57 1 4 -5 1 -11 -5 -13 -5 -2 -12 -19 -13 -38 -4 -43 -22 -90
-35 -90 -6 0 -6 -13 0 -35 9 -31 7 -38 -10 -53 -19 -16 -20 -19 -7 -44 15 -28
11 -68 -6 -68 -5 0 -6 -5 -2 -12 4 -6 3 -8 -4 -4 -12 7 -62 -13 -62 -26 0 -17
-17 -7 -28 17 -23 50 -92 12 -92 -52 0 -27 -4 -33 -17 -31 -13 2 -19 -5 -21
-25 -3 -23 -8 -28 -23 -24 -23 6 -27 -24 -4 -43 20 -17 19 -24 -7 -35 -13 -6
-27 -20 -33 -33 -5 -12 -16 -20 -22 -17 -9 3 -13 -6 -13 -29 0 -26 -5 -35 -22
-39 -28 -8 -38 -1 -38 25 0 13 -5 18 -14 15 -8 -3 -17 1 -20 9 -5 13 -10 13
-34 -5 -26 -18 -29 -18 -39 -3 -14 22 -22 14 -27 -29 -3 -32 -5 -34 -39 -31
-32 3 -36 1 -43 -30 -4 -18 -7 -39 -5 -47 1 -7 -2 -10 -8 -6 -6 3 -11 -1 -11
-9 0 -9 -7 -16 -16 -16 -12 0 -15 -7 -12 -29 3 -23 0 -31 -16 -35 -20 -6 -20
-7 7 -31 31 -28 32 -31 12 -51 -19 -20 -19 -39 1 -58 8 -9 12 -20 9 -26 -8
-13 -48 -13 -62 1 -16 16 -63 -33 -63 -66 0 -22 -3 -25 -20 -20 -16 5 -20 2
-20 -17 0 -13 5 -30 10 -38 8 -12 2 -16 -28 -20 l-37 -5 1 -53 c2 -43 -1 -52
-13 -48 -10 4 -18 -4 -26 -24 -7 -18 -19 -30 -30 -30 -14 0 -16 -4 -8 -18 10
-19 5 -58 -11 -78 -5 -7 -4 -23 2 -38 8 -21 7 -26 -5 -26 -17 0 -19 -14 -5
-40 8 -15 6 -21 -7 -29 -16 -9 -15 -13 12 -34 27 -22 28 -27 17 -51 -15 -34
-15 -36 4 -36 8 0 13 -4 10 -9 -3 -5 6 -12 21 -16 19 -4 34 0 54 14 24 18 29
18 39 6 7 -8 25 -15 40 -15 15 0 33 -6 39 -14 12 -15 -19 -31 -208 -106 -58
-23 -267 -109 -465 -192 -1012 -423 -1219 -507 -1649 -667 -637 -238 -1081
-374 -1519 -466 -140 -29 -158 -31 -158 -16 0 9 9 22 20 29 24 15 26 32 5 32
-13 0 -15 7 -9 35 4 25 3 35 -6 35 -8 0 -11 9 -8 25 4 16 0 29 -10 34 -9 5
-15 24 -16 50 0 22 -5 41 -11 41 -6 0 -19 13 -28 30 -10 16 -23 27 -31 24 -10
-4 -13 7 -12 40 1 53 -4 60 -49 60 -29 0 -32 2 -24 17 5 10 9 27 9 39 0 19 -4
21 -25 16 -23 -6 -25 -3 -25 24 0 18 -4 29 -10 25 -5 -3 -10 1 -10 10 0 9 -4
14 -9 10 -5 -3 -12 -1 -16 4 -3 6 -19 4 -39 -4 -30 -13 -36 -13 -46 0 -9 11
-9 15 -1 15 6 0 11 6 11 14 0 8 5 16 11 18 6 2 1 15 -11 31 l-22 28 21 23 c26
28 26 32 0 39 -12 3 -18 10 -14 16 11 18 -4 51 -21 44 -9 -3 -14 1 -14 12 0 9
-4 14 -9 11 -5 -3 -8 6 -8 20 0 15 -6 30 -13 34 -7 4 -9 13 -5 20 6 9 -2 10
-34 5 -36 -6 -41 -4 -41 12 0 31 -16 48 -32 35 -11 -9 -20 -8 -38 5 -17 12
-25 13 -28 5 -2 -7 -12 -12 -23 -12 -13 0 -19 -7 -19 -24 0 -21 -4 -24 -27
-23 -17 2 -28 9 -29 17 -3 45 -5 49 -19 44 -10 -4 -15 0 -15 10 0 9 -16 24
-34 33 -33 15 -34 18 -20 37 19 28 18 46 -5 46 -12 0 -21 9 -25 26 -5 19 -11
24 -25 19 -15 -5 -19 1 -24 36 -6 47 -7 48 -33 52 -10 1 -24 6 -31 10 -8 5
-18 -3 -27 -22 l-16 -29 -49 25 c-45 23 -68 53 -53 68 13 13 8 47 -10 59 -14
10 -17 20 -12 45 4 18 3 36 -2 40 -22 15 -45 63 -39 81 4 13 2 20 -6 20 -7 0
-10 3 -6 6 10 10 -20 34 -42 34 -11 0 -23 -4 -26 -10 -9 -15 -25 -12 -25 6 0
8 -5 25 -11 36 -11 21 -12 21 -25 3 -11 -15 -17 -16 -26 -7 -15 15 -48 16 -48
2 0 -18 -20 -11 -20 8 -1 24 -26 55 -39 47 -6 -3 -11 -1 -11 6 0 8 -4 8 -15
-1 -8 -7 -15 -9 -15 -4 0 25 -21 -18 -22 -45 -1 -21 -5 -28 -12 -22 -6 4 -24
11 -39 13 -24 5 -28 3 -24 -13 3 -12 -3 -25 -16 -34 -22 -15 -22 -14 -27 32
-4 37 -10 50 -29 59 -31 16 -64 3 -71 -27 -6 -21 -11 -24 -43 -21 -35 3 -37 1
-32 -21 5 -18 0 -26 -19 -37 -19 -10 -23 -17 -15 -26 7 -8 6 -14 -2 -19 -7 -5
-8 -10 -1 -14 6 -4 8 -24 5 -48 -5 -37 -8 -41 -24 -33 -37 20 -81 5 -48 -16 8
-4 2 -12 -15 -21 -19 -10 -25 -19 -21 -33 4 -12 -2 -26 -16 -39 -28 -26 -39
-27 -39 -1 0 28 -17 25 -37 -7 -9 -16 -18 -29 -19 -31 -1 -2 -12 6 -24 18 -15
15 -27 19 -43 14 -26 -8 -48 -34 -43 -50 5 -12 -46 -54 -64 -54 -5 0 -11 -11
-11 -25 -1 -14 -2 -30 -3 -37 0 -7 -12 -15 -26 -18 -18 -4 -25 -13 -26 -30 -1
-58 -11 -68 -69 -72 -52 -3 -55 -2 -60 23 -11 50 -85 43 -103 -10 -11 -31 -32
-43 -32 -18 0 6 -12 -1 -26 -16 -19 -23 -28 -26 -38 -17 -18 14 -26 -14 -14
-47 7 -21 4 -23 -22 -23 -17 0 -38 -9 -50 -22 -11 -12 -20 -16 -20 -10 0 25
-21 11 -27 -19 -4 -21 -10 -28 -20 -25 -8 4 -22 6 -30 6 -12 0 -14 7 -9 31 5
25 3 30 -9 25 -9 -3 -15 1 -15 10 0 13 -7 15 -35 10 -28 -6 -35 -4 -35 9 0 25
-18 17 -35 -15 l-15 -29 -31 17 c-24 13 -33 14 -36 4 -3 -6 -9 -10 -14 -6 -5
3 -9 -2 -9 -10 0 -9 -4 -16 -10 -16 -5 0 -7 -7 -4 -15 5 -11 2 -13 -10 -9 -9
4 -16 1 -16 -6 0 -7 -7 -10 -16 -6 -10 4 -18 -3 -25 -23 -8 -22 -15 -28 -30
-24 -23 6 -24 -3 -3 -42 10 -19 11 -31 5 -33 -6 -2 -11 -7 -11 -11 0 -13 166
-234 275 -366 169 -206 288 -335 310 -335 11 0 79 16 152 36 116 33 132 40
138 61 6 26 31 26 29 1 -1 -13 5 -14 33 -6 18 5 43 6 55 2 40 -12 8 14 -87 71
-52 32 -95 60 -95 62 0 5 88 -44 151 -83 20 -13 39 -21 41 -19 2 2 0 53 -4
112 -11 147 -5 162 11 28 22 -180 21 -178 65 -193 34 -11 52 -9 165 18 69 17
155 37 191 46 49 12 90 14 171 8 122 -7 117 -11 120 86 1 33 -6 71 -16 95 -11
26 -13 41 -6 43 6 2 11 10 11 17 0 15 27 28 40 20 5 -3 7 -43 5 -89 -4 -72 -2
-87 15 -109 24 -30 25 -37 6 -37 -7 0 -19 -7 -27 -16 -11 -13 -9 -15 12 -10
127 29 133 29 386 -42 l238 -67 32 -65 c18 -36 33 -73 33 -83 0 -15 -54 -154
-64 -164 -2 -2 -65 -8 -141 -13 -76 -6 -196 -19 -266 -30 -70 -10 -200 -29
-289 -40 -117 -15 -175 -27 -209 -44 -39 -19 -73 -24 -226 -34 l-180 -12 -204
34 c-112 19 -204 36 -205 38 -1 2 -19 24 -40 50 -38 47 -38 48 -26 95 16 62 0
128 -31 136 -19 5 -21 11 -16 41 3 20 4 36 2 36 -4 0 -204 -68 -237 -81 -59
-24 -100 -263 -56 -331 9 -14 89 -76 178 -138 l161 -112 128 -24 c178 -32 267
-38 401 -24 225 23 297 23 443 1 163 -25 222 -26 268 -7 19 8 86 22 149 31
157 22 221 41 293 88 123 78 166 138 175 244 5 61 6 63 36 68 17 3 91 14 164
25 990 150 1748 390 3357 1065 566 237 909 378 1080 443 323 124 369 140 387
131 10 -6 169 -1 390 10 l373 20 271 85 271 86 114 0 c111 0 129 3 644 124
345 82 585 143 688 178 l158 53 87 95 c87 94 89 96 115 190 14 52 27 106 29
120 4 32 41 50 220 106 130 41 147 44 253 44 107 0 132 5 496 90 601 142 703
168 853 222 l141 50 82 89 c91 99 104 127 144 326 19 95 19 107 5 186 -10 57
-28 111 -55 166 -23 44 -43 81 -44 81 -2 0 -2 -35 1 -79 l4 -78 -108 -58 c-60
-32 -172 -101 -249 -153 -77 -52 -189 -126 -250 -164 -60 -38 -130 -91 -155
-118 -33 -36 -87 -73 -197 -134 -142 -79 -164 -88 -350 -142 l-199 -56 -60 28
c-55 27 -59 32 -67 73 -12 61 -51 111 -87 111 -24 0 -29 5 -35 36 -5 27 -9 34
-18 25 -6 -6 -27 -11 -46 -11 -20 -1 -64 -7 -97 -14 -55 -12 -72 -22 -160 -98
l-99 -85 -197 -33 -198 -33 -111 -88 c-61 -48 -123 -90 -137 -93 -15 -3 -121
-22 -237 -42 -115 -19 -211 -37 -213 -39 -2 -2 20 -21 50 -42 29 -22 81 -61
116 -86 l63 -46 147 5 147 6 -90 -59 c-49 -33 -102 -76 -118 -96 -19 -25 -75
-63 -185 -125 -150 -85 -166 -92 -358 -147 l-201 -57 -60 31 c-57 28 -61 32
-67 74 -8 55 -57 117 -86 110 -15 -4 -22 2 -30 22 -5 14 -10 32 -10 40 0 7 67
71 149 142 83 70 150 135 150 143 1 8 -12 22 -28 31 -19 11 -31 28 -36 50 -14
70 -39 125 -71 155 -32 29 -33 32 -23 68 6 21 15 36 22 34 7 -3 22 -33 33 -67
12 -35 27 -67 34 -71 6 -4 11 -11 9 -16 -1 -5 12 -16 29 -25 31 -16 31 -16 12
-34 -26 -24 -27 -55 -1 -48 15 4 20 -1 23 -24 2 -17 9 -28 18 -28 8 0 18 -4
22 -10 5 -6 11 -6 19 2 6 6 18 9 25 6 40 -15 87 12 242 135 134 107 170 131
222 147 59 18 73 29 264 212 163 157 214 199 268 225 37 18 67 37 67 41 1 5
-4 5 -10 1 -6 -3 -24 3 -39 15 -19 13 -30 16 -32 9 -6 -18 -28 1 -28 23 0 41
-40 60 -81 39 -15 -8 -19 -7 -19 4 0 8 -5 27 -11 43 -10 27 -11 27 -25 9 -15
-21 -16 -21 -33 12 -7 12 -16 20 -22 17 -5 -4 -9 -2 -9 4 0 18 -45 7 -65 -17
-20 -23 -63 -22 -48 1 17 27 9 50 -19 61 -21 8 -28 16 -24 28 20 62 20 61 -1
54 -16 -5 -23 0 -33 24 -9 22 -16 28 -25 20 -9 -7 -24 1 -55 31 l-42 41 -28
-20 -27 -21 -23 32 c-22 29 -24 30 -32 11 -7 -15 -16 -19 -39 -16 -22 3 -29 0
-29 -12 0 -9 -7 -16 -15 -16 -12 0 -13 -4 -6 -18 6 -11 6 -24 0 -33 -5 -7 -9
-10 -9 -6 0 4 -8 4 -17 -2 -14 -7 -20 -4 -30 21 -11 25 -16 28 -28 18 -12 -10
-16 -9 -21 4 -4 10 -18 16 -40 16 -32 0 -34 2 -34 36 0 30 -3 35 -19 29 -13
-4 -28 2 -42 16 -15 15 -24 18 -27 11 -6 -20 -19 -13 -40 22 -18 30 -25 34
-53 31 -39 -5 -41 -7 -43 -39 -1 -23 -5 -26 -41 -27 -58 -2 -69 1 -80 19 -9
17 -11 22 -13 55 -1 11 -10 17 -25 17 -19 0 -26 8 -36 40 -6 22 -15 39 -19 38
-15 -5 -61 35 -72 63 -8 18 -18 28 -26 25 -7 -3 -15 0 -18 7 -3 8 -14 2 -30
-16 l-26 -28 -30 33 c-28 31 -29 32 -30 11z m356 -619 c-3 -8 8 -21 24 -31 54
-32 37 -56 -52 -73 -70 -13 -91 -9 -82 15 4 9 -3 16 -20 21 -22 5 -26 12 -26
40 0 24 5 34 15 34 8 0 15 -4 15 -8 0 -18 43 -5 63 19 20 25 22 26 44 11 13
-8 22 -21 19 -28z m864 16 c0 -5 -7 -10 -16 -10 -8 0 -12 5 -9 10 3 6 10 10
16 10 5 0 9 -4 9 -10z m-815 -126 c27 -11 -3 -24 -53 -24 -24 0 -66 -10 -93
-21 -27 -12 -52 -19 -55 -17 -10 11 49 39 109 52 79 18 73 17 92 10z m672
-129 c6 -18 -28 -48 -40 -35 -10 9 9 50 24 50 5 0 12 -7 16 -15z m53 -73 c0
-8 6 -12 14 -9 7 3 19 0 25 -6 8 -8 15 -5 27 11 13 19 19 21 30 11 8 -7 14
-22 12 -33 -2 -17 -10 -21 -37 -21 -19 0 -36 -6 -38 -12 -6 -17 -23 -16 -23 1
0 15 -21 26 -52 26 -14 0 -18 5 -14 16 3 9 6 24 6 35 0 16 3 17 25 7 14 -6 25
-18 25 -26z m-1560 -329 c0 -7 -5 -13 -11 -13 -5 0 -7 -4 -4 -10 3 -5 1 -10
-4 -10 -7 0 -9 -14 -6 -35 2 -19 1 -35 -2 -35 -4 0 -19 15 -34 33 -30 35 -39
22 -13 -18 15 -24 15 -25 -3 -25 -33 0 -44 19 -28 51 8 15 12 34 9 43 -3 8 -1
23 5 34 9 17 15 18 51 9 22 -6 40 -17 40 -24z m544 -75 c26 -38 43 -68 39 -68
-4 0 -32 37 -62 83 -61 94 -47 85 23 -15z m-534 -38 c0 -5 -9 -10 -21 -10 -11
0 -17 5 -14 10 3 6 13 10 21 10 8 0 14 -4 14 -10z m-50 -19 c0 -9 -23 -21 -41
-21 -4 0 -6 7 -3 15 7 16 44 21 44 6z m224 -182 l31 -52 179 -73 178 -73 -5
67 -6 67 13 -68 c7 -38 19 -73 27 -77 18 -11 7 -15 -89 -30 -70 -12 -76 -15
-160 -87 -48 -41 -96 -81 -107 -88 -11 -7 -105 -27 -210 -45 -104 -18 -194
-35 -200 -38 -5 -3 -53 -40 -105 -82 -52 -42 -100 -79 -106 -83 -11 -6 -465
-87 -487 -87 -7 1 23 34 66 74 l78 73 -36 88 c-19 48 -34 90 -32 92 2 2 21
-33 42 -77 20 -45 41 -80 46 -78 5 2 117 106 249 231 206 195 252 233 312 262
98 47 208 71 270 58 27 -5 48 -6 48 -1 0 5 -10 28 -21 51 -28 54 -15 42 25
-24z m373 29 c-3 -8 -6 -5 -6 6 -1 11 2 17 5 13 3 -3 4 -12 1 -19z m0 -75 c-3
-10 -5 -4 -5 12 0 17 2 24 5 18 2 -7 2 -21 0 -30z m-1397 -53 c0 -5 -5 -10
-11 -10 -5 0 -7 5 -4 10 3 6 8 10 11 10 2 0 4 -4 4 -10z m268 -152 c20 -20 14
-36 -13 -30 -16 3 -25 11 -25 23 0 21 20 25 38 7z m-4 -73 l25 -25 -30 -17
c-16 -10 -28 -22 -26 -28 3 -5 8 -21 12 -34 l7 -24 -23 22 c-13 12 -29 19 -37
16 -7 -3 -18 -5 -23 -5 -6 0 -7 -4 -4 -10 8 -13 -18 -13 -32 1 -5 5 -8 21 -5
34 4 23 5 24 33 9 27 -14 29 -13 29 6 0 11 5 19 12 18 7 -2 13 2 13 7 2 16 16
55 20 55 2 0 15 -11 29 -25z m-5706 -991 c6 3 12 1 14 -5 3 -8 13 -7 35 4 30
16 31 16 48 -10 13 -19 14 -27 5 -33 -9 -6 -6 -16 11 -39 22 -30 22 -31 4 -45
-16 -11 -29 -11 -84 2 -66 15 -90 30 -68 44 9 5 6 14 -10 29 -21 21 -21 24 -6
53 14 28 16 29 29 12 7 -10 17 -15 22 -12z m21 -135 c57 -10 91 -26 91 -42 0
-6 -56 7 -93 22 -16 6 -52 11 -80 12 -41 1 -47 3 -27 9 35 11 36 11 109 -1z
m-916 -157 c7 -10 12 -10 23 -1 30 25 12 -4 -26 -41 -28 -28 -38 -44 -33 -57
5 -15 3 -16 -8 -5 -7 6 -19 33 -26 60 -11 44 -11 48 9 65 21 18 41 12 61 -21z
m-80 -69 c6 -28 3 -33 -12 -33 -27 0 -35 29 -15 52 20 21 19 22 27 -19z m1872
-3 c3 -5 -1 -10 -10 -10 -9 0 -13 5 -10 10 3 6 8 10 10 10 2 0 7 -4 10 -10z
m-1865 -55 c0 -9 -9 -15 -25 -15 -26 0 -34 15 -12 23 23 10 37 7 37 -8z m60
-5 c0 -5 -9 -10 -20 -10 -11 0 -20 5 -20 10 0 6 9 10 20 10 11 0 20 -4 20 -10z
m487 -122 c-3 -8 -6 -5 -6 6 -1 11 2 17 5 13 3 -3 4 -12 1 -19z m1087 -11 c-8
-21 -44 -23 -44 -2 0 17 32 37 43 26 4 -4 5 -15 1 -24z m-1059 -107 c4 -18 3
-21 -4 -10 -5 8 -12 38 -15 65 -5 49 -5 49 4 10 6 -22 12 -51 15 -65z m1076
46 c8 -22 17 -32 26 -29 9 4 11 0 6 -12 -5 -14 -2 -17 13 -13 47 14 49 13 52
-14 4 -31 -9 -35 -51 -19 -20 8 -29 5 -47 -11 l-22 -21 7 24 c12 40 11 43 -25
61 -19 10 -29 18 -22 18 7 0 18 11 24 25 15 34 24 31 39 -9z m-1168 -201 c-3
-9 -8 -14 -10 -11 -3 3 -2 9 2 15 9 16 15 13 8 -4z"/>
<path d="M7263 8545 c0 -8 4 -12 9 -9 5 3 6 10 3 15 -9 13 -12 11 -12 -6z"/>
<path d="M7696 8451 c-3 -5 21 -12 55 -16 60 -7 76 -4 65 13 -7 12 -113 15
-120 3z"/>
<path d="M6227 8364 c-11 -11 3 -24 18 -18 8 4 12 10 9 15 -6 11 -18 12 -27 3z"/>
<path d="M8451 8244 c0 -11 3 -14 6 -6 3 7 2 16 -1 19 -3 4 -6 -2 -5 -13z"/>
<path d="M7183 8205 c-4 -5 -3 -7 2 -3 4 4 14 1 22 -7 20 -20 45 -19 41 2 -3
18 -56 25 -65 8z"/>
<path d="M7148 8203 c7 -3 16 -2 19 1 4 3 -2 6 -13 5 -11 0 -14 -3 -6 -6z"/>
<path d="M6655 8160 c-4 -6 20 -10 64 -10 41 0 71 4 71 10 0 6 -28 10 -64 10
-36 0 -68 -4 -71 -10z"/>
<path d="M7226 8162 c-3 -6 -1 -14 5 -17 15 -10 25 3 12 16 -7 7 -13 7 -17 1z"/>
<path d="M7223 8124 c-7 -3 -9 -12 -6 -20 3 -8 -4 -18 -18 -24 -55 -22 -57
-29 -56 -143 0 -59 -2 -110 -6 -114 -12 -12 -7 -23 10 -23 15 0 15 -1 0 -18
-13 -15 -17 -39 -17 -110 l0 -92 34 0 c18 0 48 3 66 6 l32 7 -7 138 -8 138 72
77 c48 53 68 81 61 88 -7 7 -27 -7 -63 -42 -29 -29 -56 -52 -60 -52 -4 0 -7
43 -7 95 0 52 -3 95 -7 94 -5 0 -13 -3 -20 -5z"/>
<path d="M7437 8096 c-9 -7 -17 -16 -17 -20 0 -11 27 -6 39 8 16 19 0 27 -22
12z"/>
<path d="M8077 7963 c-4 -32 -9 -95 -13 -140 -4 -46 -9 -83 -12 -83 -4 0 -77
36 -163 80 -150 76 -197 97 -153 66 11 -8 82 -49 158 -91 172 -97 181 -96 190
7 8 93 10 207 4 214 -3 2 -8 -21 -11 -53z"/>
<path d="M7055 7890 c-8 -13 13 -40 31 -40 17 0 17 5 4 31 -12 21 -25 25 -35
9z"/>
<path d="M6390 7715 c-1 -11 -2 -33 -2 -50 0 -16 1 -54 1 -82 1 -29 6 -53 11
-53 6 0 10 25 9 58 -1 63 -15 158 -19 127z"/>
<path d="M6675 7582 c-43 -21 -74 -41 -68 -45 11 -7 117 44 143 69 21 21 12
18 -75 -24z"/>
</g>
</svg>
